<svg xmlns="http://www.w3.org/2000/svg" viewBox="0 0 1200 900" preserveAspectRatio="xMidYMid slice">
  <defs>
    <linearGradient id="bg" x1="0" y1="0" x2="1" y2="1">
      <stop offset="0" stop-color="#0E1430"/>
      <stop offset="0.55" stop-color="#120A24"/>
      <stop offset="1" stop-color="#0B0414"/>
    </linearGradient>
    <radialGradient id="glow" cx="0.8" cy="0.1" r="0.8">
      <stop offset="0" stop-color="#1E63FF" stop-opacity="0.45"/>
      <stop offset="1" stop-color="#1E63FF" stop-opacity="0"/>
    </radialGradient>
    <radialGradient id="glow2" cx="0.05" cy="1" r="0.7">
      <stop offset="0" stop-color="#E8519B" stop-opacity="0.30"/>
      <stop offset="1" stop-color="#E8519B" stop-opacity="0"/>
    </radialGradient>
  </defs>
  <rect width="1200" height="900" fill="url(#bg)"/>
  <rect width="1200" height="900" fill="url(#glow)"/>
  <rect width="1200" height="900" fill="url(#glow2)"/>
  <!-- faint dashboard motif -->
  <g opacity="0.16" stroke="#9DB4FF" stroke-width="2" fill="none">
    <path d="M120 560 L260 500 L400 520 L540 430 L680 460 L820 360 L960 380 L1080 300"/>
    <circle cx="540" cy="430" r="6" fill="#9DB4FF" stroke="none"/>
    <circle cx="820" cy="360" r="6" fill="#9DB4FF" stroke="none"/>
  </g>
  <g opacity="0.12" fill="#7FE0D4">
    <rect x="120" y="640" width="36" height="120" rx="6"/>
    <rect x="180" y="600" width="36" height="160" rx="6"/>
    <rect x="240" y="660" width="36" height="100" rx="6"/>
    <rect x="300" y="580" width="36" height="180" rx="6"/>
  </g>
  <g opacity="0.10" stroke="#FFFFFF" stroke-width="1.5">
    <line x1="0" y1="220" x2="1200" y2="220"/>
    <line x1="0" y1="440" x2="1200" y2="440"/>
    <line x1="0" y1="660" x2="1200" y2="660"/>
  </g>
</svg>
