<svg style="width:100%;background:#f1f0ec;border-radius:12px" viewBox="0 0 1080 580" xmlns="http://www.w3.org/2000/svg">
<defs>
 <filter id="sk" x="-3%" y="-3%" width="106%" height="106%">
  <feTurbulence type="fractalNoise" baseFrequency="0.018" numOctaves="2" seed="7" result="n"/>
  <feDisplacementMap in="SourceGraphic" in2="n" scale="3.2" xChannelSelector="R" yChannelSelector="G"/>
 </filter>
</defs>
<style>
 text{font-family:Inter,system-ui,-apple-system,sans-serif}
 .frame{fill:#fcfcfb;stroke:#b1b1a9;stroke-width:2}
 .chrome{fill:#d3d3cd}
 .bar{fill:#e4e4df}
 .bar2{fill:#d5d5cf}
 .fld{fill:#ffffff;stroke:#bdbdb6;stroke-width:1.4;stroke-dasharray:5 3}
 .btn{fill:#b9b9b2}
 .opt{font-size:13px;font-weight:700;fill:#6a6a64}
 .ann{font-size:10.5px;fill:#8f8f88}
 .lbl{font-family:'Roboto Mono',monospace;font-size:11px;letter-spacing:.1em;fill:#9a9a93}
 .chosen{fill:#5c5c56}
 .chev{fill:#a8a8a2}
</style>
<g filter="url(#sk)">
 <!-- ===== OPTION A : left rail / centre preview / right summary ===== -->
 <rect class="frame" x="40" y="80" width="300" height="430" rx="6"/>
 <rect class="chrome" x="40" y="80" width="300" height="20" rx="6"/>
 <circle cx="54" cy="90" r="3" fill="#b1b1a9"/>
 <circle cx="64" cy="90" r="3" fill="#b1b1a9"/>
 <circle cx="74" cy="90" r="3" fill="#b1b1a9"/>
 <!-- left rail -->
 <rect class="bar" x="50" y="110" width="74" height="390" rx="3"/>
 <rect class="bar2" x="58" y="120" width="58" height="14" rx="2"/>
 <rect class="fld" x="58" y="142" width="58" height="22" rx="2"/>
 <rect class="fld" x="58" y="170" width="58" height="22" rx="2"/>
 <rect class="bar2" x="58" y="206" width="40" height="11" rx="2"/>
 <circle cx="65" cy="232" r="9" fill="#cfcfc9"/>
 <circle cx="87" cy="232" r="9" fill="#c2c2bc"/>
 <circle cx="109" cy="232" r="9" fill="#d9d9d3"/>
 <rect class="bar2" x="58" y="258" width="50" height="11" rx="2"/>
 <rect class="fld" x="58" y="278" width="58" height="20" rx="2"/>
 <rect class="fld" x="58" y="304" width="58" height="20" rx="2"/>
 <rect class="fld" x="58" y="330" width="58" height="20" rx="2"/>
 <rect class="btn" x="58" y="360" width="58" height="18" rx="9"/>
 <!-- centre preview -->
 <rect class="bar" x="134" y="110" width="120" height="390" rx="3" fill="#eeeee9"/>
 <path d="M174 150 l16 -10 24 0 16 10 -14 22 -12 -6 0 60 -12 0 0 -60 -12 6 z" fill="#cccbc4"/>
 <rect class="bar2" x="170" y="430" width="48" height="10" rx="2"/>
 <!-- right summary -->
 <rect class="bar" x="264" y="110" width="66" height="390" rx="3"/>
 <rect class="bar2" x="272" y="122" width="48" height="12" rx="2"/>
 <rect class="fld" x="272" y="146" width="50" height="16" rx="2"/>
 <rect class="fld" x="272" y="170" width="50" height="16" rx="2"/>
 <rect class="bar2" x="272" y="206" width="40" height="22" rx="2" fill="#c7c7c1"/>
 <rect class="btn" x="272" y="452" width="50" height="22" rx="11"/>

 <!-- ===== OPTION B : top toolbar / preview below ===== -->
 <rect class="frame" x="380" y="80" width="300" height="430" rx="6"/>
 <rect class="chrome" x="380" y="80" width="300" height="20" rx="6"/>
 <circle cx="394" cy="90" r="3" fill="#b1b1a9"/>
 <circle cx="404" cy="90" r="3" fill="#b1b1a9"/>
 <circle cx="414" cy="90" r="3" fill="#b1b1a9"/>
 <!-- top toolbar -->
 <rect class="bar" x="390" y="110" width="280" height="60" rx="3"/>
 <rect class="fld" x="400" y="122" width="46" height="18" rx="2"/>
 <rect class="fld" x="454" y="122" width="46" height="18" rx="2"/>
 <circle cx="520" cy="131" r="8" fill="#cfcfc9"/>
 <circle cx="540" cy="131" r="8" fill="#c2c2bc"/>
 <rect class="fld" x="560" y="122" width="46" height="18" rx="2"/>
 <rect class="btn" x="616" y="122" width="44" height="18" rx="9"/>
 <rect class="bar2" x="400" y="148" width="60" height="11" rx="2"/>
 <rect class="bar2" x="470" y="148" width="60" height="11" rx="2"/>
 <rect class="bar2" x="540" y="148" width="60" height="11" rx="2"/>
 <!-- preview below (pushed down, cramped) -->
 <rect class="bar" x="390" y="180" width="280" height="280" rx="3" fill="#eeeee9"/>
 <path d="M495 230 l18 -11 26 0 18 11 -15 24 -13 -6 0 78 -16 0 0 -78 -13 6 z" fill="#cccbc4"/>
 <rect class="bar2" x="500" y="420" width="56" height="10" rx="2"/>
 <rect class="bar" x="390" y="470" width="280" height="30" rx="3"/>
 <rect class="bar2" x="400" y="480" width="40" height="11" rx="2"/>
 <rect class="btn" x="606" y="478" width="54" height="16" rx="8"/>

 <!-- ===== OPTION C : floating panels over canvas ===== -->
 <rect class="frame" x="720" y="80" width="300" height="430" rx="6"/>
 <rect class="chrome" x="720" y="80" width="300" height="20" rx="6"/>
 <circle cx="734" cy="90" r="3" fill="#b1b1a9"/>
 <circle cx="744" cy="90" r="3" fill="#b1b1a9"/>
 <circle cx="754" cy="90" r="3" fill="#b1b1a9"/>
 <!-- full canvas + tee -->
 <rect class="bar" x="730" y="110" width="280" height="390" rx="3" fill="#eeeee9"/>
 <path d="M835 175 l20 -12 28 0 20 12 -16 26 -15 -7 0 96 -18 0 0 -96 -15 7 z" fill="#cccbc4"/>
 <!-- floating panels covering the tee -->
 <rect class="bar" x="744" y="130" width="86" height="150" rx="4" fill="#dcdcd6" stroke="#bdbdb6" stroke-width="1.4"/>
 <rect class="bar2" x="752" y="140" width="48" height="11" rx="2"/>
 <rect class="fld" x="752" y="160" width="70" height="18" rx="2"/>
 <rect class="fld" x="752" y="184" width="70" height="18" rx="2"/>
 <circle cx="760" cy="222" r="8" fill="#cfcfc9"/>
 <circle cx="780" cy="222" r="8" fill="#c2c2bc"/>
 <circle cx="800" cy="222" r="8" fill="#d9d9d3"/>
 <rect class="btn" x="752" y="248" width="70" height="18" rx="9"/>
 <rect class="bar" x="890" y="300" width="100" height="160" rx="4" fill="#dcdcd6" stroke="#bdbdb6" stroke-width="1.4"/>
 <rect class="bar2" x="898" y="312" width="54" height="11" rx="2"/>
 <rect class="fld" x="898" y="332" width="80" height="16" rx="2"/>
 <rect class="fld" x="898" y="354" width="80" height="16" rx="2"/>
 <rect class="bar2" x="898" y="384" width="44" height="20" rx="2" fill="#c7c7c1"/>
 <rect class="btn" x="898" y="430" width="80" height="20" rx="10"/>
 <rect class="bar" x="800" y="370" width="78" height="90" rx="4" fill="#d6d6d0" stroke="#bdbdb6" stroke-width="1.4"/>
 <rect class="bar2" x="808" y="380" width="40" height="10" rx="2"/>
 <rect class="fld" x="808" y="396" width="62" height="16" rx="2"/>
 <rect class="fld" x="808" y="418" width="62" height="16" rx="2"/>
</g>
<!-- crisp text layer -->
<text class="lbl" x="40" y="32">DESIGN STUDIO &#183; LAYOUT EXPLORATION</text>
<text class="opt" x="40" y="70">Option A</text>
<text class="opt" x="380" y="70">Option B</text>
<text class="opt" x="720" y="70">Option C</text>
<g transform="translate(248,53)"><rect class="chosen" width="92" height="18" rx="9"/><text x="46" y="13" text-anchor="middle" style="font-size:9px;fill:#fff;font-weight:600">&#10003; chosen</text></g>
<text class="ann" x="40" y="540">Left rail, preview centred.</text>
<text class="ann" x="40" y="556">Calmest, preview stays the hero. Shipped.</text>
<text class="ann" x="380" y="540">Top toolbar of controls.</text>
<text class="ann" x="380" y="556">Pushed the preview down, felt cramped.</text>
<text class="ann" x="720" y="540">Floating tool panels.</text>
<text class="ann" x="720" y="556">Covered the tee the user is judging.</text>
</svg>