<svg width="760" height="540" xmlns="http://www.w3.org/2000/svg" viewBox="0 0 760 540" style="background:#FBF6E9;width:100%;height:auto;border-radius:10px;">
<path d="M0.0 30.0 Q379.9 30.2 760.0 30.0" fill="none" stroke="#4A4A4A" stroke-width="2.5" stroke-linecap="round"></path>
<text x="20" y="22" font-family="Caveat, cursive" font-size="14" fill="#3A3A3A">Aurora Engage  |  New Message</text>
<text x="20" y="55" font-family="Caveat, cursive" font-size="12" fill="#3A3A3A">Properties · Email Header · Design · Preview</text>
<path d="M0.0 65.0 Q381.3 64.9 760.0 65.0" fill="none" stroke="#888" stroke-width="1.2" stroke-linecap="round"></path>
<path d="M20.0 80.3 L379.1 80.0" fill="none" stroke="#555" stroke-width="1.8" stroke-linecap="round"></path><path d="M379.1 80.0 L380.4 460.9" fill="none" stroke="#555" stroke-width="1.8" stroke-linecap="round"></path><path d="M380.4 460.9 L18.8 459.4" fill="none" stroke="#555" stroke-width="1.8" stroke-linecap="round"></path><path d="M18.8 459.4 L20.0 80.3" fill="none" stroke="#555" stroke-width="1.8" stroke-linecap="round"></path>
<text x="35" y="100" font-family="Caveat, cursive" font-size="12" fill="#777">Preheader text</text>
<path d="M20.0 110.0 Q198.8 110.9 380.0 110.0" fill="none" stroke="#999" stroke-width="1" stroke-linecap="round"></path>
<path d="M35.6 118.6 L96.4 121.4" fill="none" stroke="#999" stroke-width="1.5" stroke-linecap="round"></path><path d="M96.4 121.4 L95.5 150.3" fill="none" stroke="#999" stroke-width="1.5" stroke-linecap="round"></path><path d="M95.5 150.3 L34.0 148.5" fill="none" stroke="#999" stroke-width="1.5" stroke-linecap="round"></path><path d="M34.0 148.5 L35.6 118.6" fill="none" stroke="#999" stroke-width="1.5" stroke-linecap="round"></path>
<text x="65" y="140" text-anchor="middle" font-family="Caveat, cursive" font-size="11" fill="#777">Logo</text>
<path d="M35.1 173.7 L364.1 174.2" fill="none" stroke="#2B8679" stroke-width="2.5" stroke-linecap="round"></path><path d="M364.1 174.2 L363.6 304.9" fill="none" stroke="#2B8679" stroke-width="2.5" stroke-linecap="round"></path><path d="M363.6 304.9 L34.8 306.0" fill="none" stroke="#2B8679" stroke-width="2.5" stroke-linecap="round"></path><path d="M34.8 306.0 L35.1 173.7" fill="none" stroke="#2B8679" stroke-width="2.5" stroke-linecap="round"></path>
<rect x="35" y="175" width="330" height="130" fill="#2B8679" fill-opacity="0.06" rx="2"></rect>
<path d="M45.0 190.0 L60.5 190.3 L76.0 190.0 L91.5 190.3 L107.0 189.9 L122.5 189.6 L138.0 191.0 L153.5 191.0 L169.0 190.7 L184.5 190.4 L200.0 189.6 L215.5 189.5 L231.0 189.6 L246.5 189.1 L262.0 190.5 L277.5 189.8 L293.0 190.7 L308.5 189.8 L324.0 190.9 L339.5 190.7" fill="none" stroke="#555" stroke-width="1.5" stroke-linecap="round"></path><path d="M45.0 199.0 L60.5 199.4 L76.0 200.8 L91.5 199.9 L107.0 201.0 L122.5 199.8 L138.0 199.1 L153.5 200.3 L169.0 200.6 L184.5 199.5 L200.0 199.2 L215.5 199.7 L231.0 200.9 L246.5 200.5 L262.0 199.2 L277.5 199.5 L293.0 199.2 L308.5 199.1 L324.0 200.6 L339.5 199.4" fill="none" stroke="#555" stroke-width="1.5" stroke-linecap="round"></path><path d="M45.0 210.1 L60.5 209.9 L76.0 209.4 L91.5 210.5 L107.0 209.3 L122.5 210.3 L138.0 209.2 L153.5 209.8 L169.0 209.4 L184.5 209.5 L200.0 210.9 L215.5 210.6 L231.0 209.6 L246.5 210.8 L262.0 209.4 L277.5 209.8 L293.0 210.7 L308.5 210.3 L324.0 209.2 L339.5 211.0" fill="none" stroke="#555" stroke-width="1.5" stroke-linecap="round"></path><path d="M45.0 219.4 L60.5 219.5 L76.0 220.5 L91.5 219.7 L107.0 219.6 L122.5 219.1 L138.0 219.2 L153.5 220.2 L169.0 219.5 L184.5 220.2 L200.0 219.7 L215.5 219.9 L231.0 220.9 L246.5 220.0 L262.0 220.1 L277.5 220.7 L293.0 219.4 L308.5 219.3 L324.0 220.8 L339.5 220.6" fill="none" stroke="#555" stroke-width="1.5" stroke-linecap="round"></path><path d="M45.0 229.5 L60.5 229.4 L76.0 230.5 L91.5 230.9 L107.0 229.4 L122.5 230.9 L138.0 230.8 L153.5 230.2 L169.0 229.8 L184.5 229.2 L200.0 229.1 L215.5 230.9 L231.0 229.5 L246.5 230.4 L262.0 229.5 L277.5 230.6 L293.0 230.2 L308.5 229.6 L324.0 229.4 L339.5 230.4" fill="none" stroke="#555" stroke-width="1.5" stroke-linecap="round"></path><path d="M45.0 239.5 L61.4 240.1 L77.9 240.7 L94.3 240.2 L110.7 239.6 L127.2 240.8 L143.6 239.4 L160.0 239.0 L176.5 239.5" fill="none" stroke="#555" stroke-width="1.5" stroke-linecap="round"></path>
<text x="375" y="180" font-family="Caveat, cursive" font-size="10" fill="#2B8679">selected</text>
<text x="35" y="430" font-family="Caveat, cursive" font-size="11" fill="#777">© year</text>
<path d="M394.8 78.7 L739.0 79.6" fill="none" stroke="#555" stroke-width="2" stroke-linecap="round"></path><path d="M739.0 79.6 L740.2 458.9" fill="none" stroke="#555" stroke-width="2" stroke-linecap="round"></path><path d="M740.2 458.9 L394.6 461.2" fill="none" stroke="#555" stroke-width="2" stroke-linecap="round"></path><path d="M394.6 461.2 L394.8 78.7" fill="none" stroke="#555" stroke-width="2" stroke-linecap="round"></path>
<text x="410" y="100" font-family="Caveat, cursive" font-size="15" fill="#3A3A3A">Helio AI</text>
<path d="M721.4 86.5 L734.6 86.3" fill="none" stroke="#555" stroke-width="1.5" stroke-linecap="round"></path><path d="M734.6 86.3 L732.9 98.6" fill="none" stroke="#555" stroke-width="1.5" stroke-linecap="round"></path><path d="M732.9 98.6 L718.6 101.2" fill="none" stroke="#555" stroke-width="1.5" stroke-linecap="round"></path><path d="M718.6 101.2 L721.4 86.5" fill="none" stroke="#555" stroke-width="1.5" stroke-linecap="round"></path>
<text x="727" y="97" text-anchor="middle" font-family="Caveat, cursive" font-size="10" fill="#555">×</text>
<path d="M410.0 110.0 Q570.6 111.4 730.0 110.0" fill="none" stroke="#aaa" stroke-width="1" stroke-linecap="round"></path>
<path d="M408.6 125.4 L729.9 125.7" fill="none" stroke="#888" stroke-width="1.5" stroke-linecap="round"></path><path d="M729.9 125.7 L729.5 206.5" fill="none" stroke="#888" stroke-width="1.5" stroke-linecap="round"></path><path d="M729.5 206.5 L408.7 205.1" fill="none" stroke="#888" stroke-width="1.5" stroke-linecap="round"></path><path d="M408.7 205.1 L408.6 125.4" fill="none" stroke="#888" stroke-width="1.5" stroke-linecap="round"></path>
<rect x="410" y="125" width="320" height="80" fill="#F0EBDC" rx="3"></rect>
<path d="M420.0 140.5 L435.0 140.8 L450.0 140.5 L465.0 140.4 L480.0 140.6 L495.0 140.8 L510.0 139.7 L525.0 140.4 L540.0 140.8 L555.0 140.7 L570.0 139.8 L585.0 140.6 L600.0 140.7 L615.0 140.1 L630.0 140.2 L645.0 139.8 L660.0 140.2 L675.0 140.2 L690.0 139.2 L705.0 140.3" fill="none" stroke="#555" stroke-width="1.5" stroke-linecap="round"></path><path d="M420.0 152.0 L435.0 151.8 L450.0 151.5 L465.0 150.8 L480.0 151.5 L495.0 151.2 L510.0 150.9 L525.0 151.7 L540.0 150.2 L555.0 151.5 L570.0 150.1 L585.0 151.2 L600.0 151.0 L615.0 150.5 L630.0 151.4 L645.0 151.0 L660.0 151.2 L675.0 151.8 L690.0 150.5 L705.0 150.0" fill="none" stroke="#555" stroke-width="1.5" stroke-linecap="round"></path><path d="M420.0 161.6 L435.0 162.4 L450.0 161.4 L465.0 161.3 L480.0 162.8 L495.0 162.3 L510.0 161.9 L525.0 162.8 L540.0 161.7 L555.0 162.3 L570.0 161.4 L585.0 161.9 L600.0 162.6 L615.0 162.8 L630.0 162.8 L645.0 161.8 L660.0 162.2 L675.0 161.6 L690.0 161.3 L705.0 162.0" fill="none" stroke="#555" stroke-width="1.5" stroke-linecap="round"></path><path d="M420.0 173.7 L435.0 173.7 L450.0 173.4 L465.0 173.9 L480.0 172.6 L495.0 172.3 L510.0 172.9 L525.0 172.6 L540.0 172.4 L555.0 172.8 L570.0 173.3 L585.0 173.0 L600.0 172.6 L615.0 173.7 L630.0 174.0 L645.0 172.9 L660.0 172.1 L675.0 172.1 L690.0 173.7 L705.0 172.1" fill="none" stroke="#555" stroke-width="1.5" stroke-linecap="round"></path><path d="M420.0 184.1 L436.2 183.6 L452.4 184.6 L468.6 183.0 L484.8 183.3 L501.0 183.9 L517.2 183.0 L533.4 184.7 L549.6 183.5 L565.8 183.3 L582.0 183.1 L598.2 184.3 L614.4 183.9" fill="none" stroke="#555" stroke-width="1.5" stroke-linecap="round"></path>
<path d="M410.4 230.5 L555.9 231.4" fill="none" stroke="#555" stroke-width="1.8" stroke-linecap="round"></path><path d="M555.9 231.4 L555.6 255.1" fill="none" stroke="#555" stroke-width="1.8" stroke-linecap="round"></path><path d="M555.6 255.1 L409.9 255.0" fill="none" stroke="#555" stroke-width="1.8" stroke-linecap="round"></path><path d="M409.9 255.0 L410.4 230.5" fill="none" stroke="#555" stroke-width="1.8" stroke-linecap="round"></path>
<text x="482" y="247" text-anchor="middle" font-family="Caveat, cursive" font-size="11" fill="#3A3A3A">Make it shorter</text>
<path d="M568.5 229.9 L715.6 229.0" fill="none" stroke="#555" stroke-width="1.8" stroke-linecap="round"></path><path d="M715.6 229.0 L714.3 255.5" fill="none" stroke="#555" stroke-width="1.8" stroke-linecap="round"></path><path d="M714.3 255.5 L570.6 256.1" fill="none" stroke="#555" stroke-width="1.8" stroke-linecap="round"></path><path d="M570.6 256.1 L568.5 229.9" fill="none" stroke="#555" stroke-width="1.8" stroke-linecap="round"></path>
<text x="642" y="247" text-anchor="middle" font-family="Caveat, cursive" font-size="11" fill="#3A3A3A">Change the tone</text>
<path d="M410.3 265.8 L554.7 265.9" fill="none" stroke="#555" stroke-width="1.8" stroke-linecap="round"></path><path d="M554.7 265.9 L556.2 289.8" fill="none" stroke="#555" stroke-width="1.8" stroke-linecap="round"></path><path d="M556.2 289.8 L411.3 291.7" fill="none" stroke="#555" stroke-width="1.8" stroke-linecap="round"></path><path d="M411.3 291.7 L410.3 265.8" fill="none" stroke="#555" stroke-width="1.8" stroke-linecap="round"></path>
<text x="482" y="282" text-anchor="middle" font-family="Caveat, cursive" font-size="11" fill="#3A3A3A">Re-write</text>
<path d="M568.9 264.9 L715.4 266.2" fill="none" stroke="#555" stroke-width="1.8" stroke-linecap="round"></path><path d="M715.4 266.2 L714.6 291.2" fill="none" stroke="#555" stroke-width="1.8" stroke-linecap="round"></path><path d="M714.6 291.2 L571.1 291.9" fill="none" stroke="#555" stroke-width="1.8" stroke-linecap="round"></path><path d="M571.1 291.9 L568.9 264.9" fill="none" stroke="#555" stroke-width="1.8" stroke-linecap="round"></path>
<text x="642" y="282" text-anchor="middle" font-family="Caveat, cursive" font-size="11" fill="#3A3A3A">Check spelling</text>
<path d="M411.3 309.9 L730.5 309.1" fill="none" stroke="#555" stroke-width="1.8" stroke-linecap="round"></path><path d="M730.5 309.1 L730.7 339.0" fill="none" stroke="#555" stroke-width="1.8" stroke-linecap="round"></path><path d="M730.7 339.0 L410.4 338.7" fill="none" stroke="#555" stroke-width="1.8" stroke-linecap="round"></path><path d="M410.4 338.7 L411.3 309.9" fill="none" stroke="#555" stroke-width="1.8" stroke-linecap="round"></path>
<text x="570" y="328" text-anchor="middle" font-family="Caveat, cursive" font-size="12" fill="#3A3A3A">Generate 5 more variations</text>
<path d="M409.1 361.2 L731.4 361.4" fill="none" stroke="#555" stroke-width="1.8" stroke-linecap="round"></path><path d="M731.4 361.4 L730.1 392.9" fill="none" stroke="#555" stroke-width="1.8" stroke-linecap="round"></path><path d="M730.1 392.9 L409.5 393.2" fill="none" stroke="#555" stroke-width="1.8" stroke-linecap="round"></path><path d="M409.5 393.2 L409.1 361.2" fill="none" stroke="#555" stroke-width="1.8" stroke-linecap="round"></path>
<text x="425" y="380" font-family="Caveat, cursive" font-size="11" fill="#999">Ask me anything...</text>
<path d="M421.1 409.5 L498.7 409.8" fill="none" stroke="#555" stroke-width="2" stroke-linecap="round"></path><path d="M498.7 409.8 L500.2 440.8" fill="none" stroke="#555" stroke-width="2" stroke-linecap="round"></path><path d="M500.2 440.8 L420.0 438.6" fill="none" stroke="#555" stroke-width="2" stroke-linecap="round"></path><path d="M420.0 438.6 L421.1 409.5" fill="none" stroke="#555" stroke-width="2" stroke-linecap="round"></path>
<text x="460" y="430" text-anchor="middle" font-family="Caveat, cursive" font-size="12" fill="#3A3A3A">Cancel</text>
<rect x="520.0" y="410.0" width="190.0" height="30.0" fill="#3a3a3a" rx="2"></rect><path d="M520.9 408.7 L710.9 409.0" fill="none" stroke="#555" stroke-width="2" stroke-linecap="round"></path><path d="M710.9 409.0 L709.5 440.9" fill="none" stroke="#555" stroke-width="2" stroke-linecap="round"></path><path d="M709.5 440.9 L518.9 438.9" fill="none" stroke="#555" stroke-width="2" stroke-linecap="round"></path><path d="M518.9 438.9 L520.9 408.7" fill="none" stroke="#555" stroke-width="2" stroke-linecap="round"></path>
<text x="615" y="430" text-anchor="middle" font-family="Caveat, cursive" font-size="12" fill="white">Insert to text block</text>
</svg>