<svg style="width:100%;background:#f1f0ec;border-radius:12px" viewBox="0 0 1080 580" xmlns="http://www.w3.org/2000/svg">
<defs>
 <filter id="sk" x="-3%" y="-3%" width="106%" height="106%">
  <feTurbulence type="fractalNoise" baseFrequency="0.018" numOctaves="2" seed="7" result="n"/>
  <feDisplacementMap in="SourceGraphic" in2="n" scale="3.2" xChannelSelector="R" yChannelSelector="G"/>
 </filter>
</defs>
<style>
 text{font-family:Inter,system-ui,-apple-system,sans-serif}
 .frame{fill:#fcfcfb;stroke:#b1b1a9;stroke-width:2}
 .chrome{fill:#d3d3cd}
 .bar{fill:#e4e4df}
 .bar2{fill:#d5d5cf}
 .fld{fill:#ffffff;stroke:#bdbdb6;stroke-width:1.4;stroke-dasharray:5 3}
 .btn{fill:#b9b9b2}
 .opt{font-size:13px;font-weight:700;fill:#6a6a64}
 .ann{font-size:10.5px;fill:#8f8f88}
 .lbl{font-family:'Roboto Mono',monospace;font-size:11px;letter-spacing:.1em;fill:#9a9a93}
 .chosen{fill:#5c5c56}
 .chev{fill:#a8a8a2}
</style>

<text class="lbl" x="40" y="32">JOURNEY &#183; SCHEDULING CADENCE &#183; LAYOUT EXPLORATION</text>

<g filter="url(#sk)">
 <!-- ===================== PANEL A ===================== -->
 <rect class="frame" x="40" y="80" width="300" height="430" rx="6"/>
 <rect class="chrome" x="40" y="80" width="300" height="34" rx="6"/>
 <rect class="bar2" x="60" y="92" width="120" height="10" rx="5"/>

 <!-- cadence label + dropdown -->
 <rect class="bar" x="60" y="140" width="90" height="9" rx="4.5"/>
 <rect class="fld" x="60" y="158" width="260" height="38" rx="6"/>
 <rect class="bar2" x="74" y="172" width="120" height="10" rx="5"/>
 <path class="chev" d="M296 172 l9 0 l-4.5 8 z"/>

 <!-- days multi-select dropdown -->
 <rect class="bar" x="60" y="220" width="70" height="9" rx="4.5"/>
 <rect class="fld" x="60" y="238" width="260" height="38" rx="6"/>
 <rect class="bar2" x="74" y="252" width="150" height="10" rx="5"/>
 <path class="chev" d="M296 252 l9 0 l-4.5 8 z"/>

 <!-- time label + dropdown -->
 <rect class="bar" x="60" y="300" width="60" height="9" rx="4.5"/>
 <rect class="fld" x="60" y="318" width="260" height="38" rx="6"/>
 <rect class="bar2" x="74" y="332" width="90" height="10" rx="5"/>
 <path class="chev" d="M296 332 l9 0 l-4.5 8 z"/>

 <!-- button -->
 <rect class="btn" x="208" y="448" width="112" height="34" rx="17"/>
 <rect class="bar2" x="236" y="461" width="56" height="8" rx="4" fill="#9a9a93"/>

 <!-- ===================== PANEL B ===================== -->
 <rect class="frame" x="380" y="80" width="300" height="430" rx="6"/>
 <rect class="chrome" x="380" y="80" width="300" height="34" rx="6"/>
 <rect class="bar2" x="400" y="92" width="120" height="10" rx="5"/>

 <!-- cadence label -->
 <rect class="bar" x="400" y="140" width="90" height="9" rx="4.5"/>
 <!-- segmented button row: 6 small rects, one filled chosen -->
 <rect class="bar2" x="400" y="158" width="42" height="30" rx="4"/>
 <rect class="bar2" x="446" y="158" width="42" height="30" rx="4"/>
 <rect class="bar2" x="492" y="158" width="42" height="30" rx="4"/>
 <rect class="chosen" x="538" y="158" width="42" height="30" rx="4"/>
 <rect class="bar2" x="584" y="158" width="42" height="30" rx="4"/>
 <rect class="bar2" x="630" y="158" width="30" height="30" rx="4"/>

 <!-- day-of-week chip row -->
 <rect class="bar" x="400" y="218" width="70" height="9" rx="4.5"/>
 <rect class="bar2" x="400" y="236" width="34" height="26" rx="13"/>
 <rect class="bar2" x="440" y="236" width="34" height="26" rx="13"/>
 <rect class="chosen" x="480" y="236" width="34" height="26" rx="13"/>
 <rect class="bar2" x="520" y="236" width="34" height="26" rx="13"/>
 <rect class="chosen" x="560" y="236" width="34" height="26" rx="13"/>
 <rect class="bar2" x="600" y="236" width="34" height="26" rx="13"/>
 <rect class="bar2" x="640" y="236" width="20" height="26" rx="10"/>

 <!-- ONE shared time field -->
 <rect class="bar" x="400" y="296" width="100" height="9" rx="4.5"/>
 <rect class="fld" x="400" y="314" width="260" height="38" rx="6"/>
 <rect class="bar2" x="414" y="328" width="80" height="10" rx="5"/>

 <!-- button -->
 <rect class="btn" x="548" y="448" width="112" height="34" rx="17"/>
 <rect class="bar2" x="576" y="461" width="56" height="8" rx="4" fill="#9a9a93"/>

 <!-- ===================== PANEL C (CHOSEN) ===================== -->
 <rect class="frame" x="720" y="80" width="300" height="430" rx="6"/>
 <rect class="chrome" x="720" y="80" width="300" height="34" rx="6"/>
 <rect class="bar2" x="740" y="92" width="120" height="10" rx="5"/>

 <!-- cadence pills: 6 rounded rects, one filled -->
 <rect class="bar" x="740" y="138" width="90" height="9" rx="4.5"/>
 <rect class="bar2" x="740" y="156" width="48" height="26" rx="13"/>
 <rect class="bar2" x="794" y="156" width="48" height="26" rx="13"/>
 <rect class="chosen" x="848" y="156" width="48" height="26" rx="13"/>
 <rect class="bar2" x="902" y="156" width="48" height="26" rx="13"/>
 <rect class="bar2" x="740" y="188" width="48" height="26" rx="13"/>
 <rect class="bar2" x="794" y="188" width="48" height="26" rx="13"/>

 <!-- day-of-week chip row: 7 small squares, some filled -->
 <rect class="bar" x="740" y="234" width="70" height="9" rx="4.5"/>
 <rect class="bar2" x="740" y="252" width="30" height="28" rx="5"/>
 <rect class="chosen" x="778" y="252" width="30" height="28" rx="5"/>
 <rect class="bar2" x="816" y="252" width="30" height="28" rx="5"/>
 <rect class="chosen" x="854" y="252" width="30" height="28" rx="5"/>
 <rect class="bar2" x="892" y="252" width="30" height="28" rx="5"/>
 <rect class="chosen" x="930" y="252" width="30" height="28" rx="5"/>
 <rect class="bar2" x="968" y="252" width="30" height="28" rx="5"/>

 <!-- small TABLE of per-day time fields -->
 <rect class="bar" x="740" y="300" width="80" height="9" rx="4.5"/>
 <!-- row 1 -->
 <rect class="bar2" x="740" y="318" width="36" height="14" rx="4"/>
 <rect class="fld" x="788" y="314" width="210" height="22" rx="4"/>
 <!-- row 2 -->
 <rect class="bar2" x="740" y="346" width="36" height="14" rx="4"/>
 <rect class="fld" x="788" y="342" width="210" height="22" rx="4"/>
 <!-- row 3 -->
 <rect class="bar2" x="740" y="374" width="36" height="14" rx="4"/>
 <rect class="fld" x="788" y="370" width="210" height="22" rx="4"/>
 <!-- row 4 -->
 <rect class="bar2" x="740" y="402" width="36" height="14" rx="4"/>
 <rect class="fld" x="788" y="398" width="210" height="22" rx="4"/>

 <!-- button -->
 <rect class="btn" x="888" y="448" width="112" height="34" rx="17"/>
 <rect class="bar2" x="916" y="461" width="56" height="8" rx="4" fill="#9a9a93"/>
</g>

<!-- option labels -->
<text class="opt" x="40" y="68">Option A</text>
<text class="opt" x="380" y="68">Option B</text>
<text class="opt" x="720" y="68">Option C</text>

<!-- chosen pill on Option C -->
<g transform="translate(928,53)"><rect class="chosen" width="92" height="18" rx="9"/><text x="46" y="13" text-anchor="middle" style="font-size:9px;fill:#fff;font-weight:600">&#10003; chosen</text></g>

<!-- bottom annotations -->
<text class="ann" x="40" y="540">Cadence + days hidden in dropdowns.</text>
<text class="ann" x="40" y="556">Too many clicks to read the schedule.</text>

<text class="ann" x="380" y="540">Segmented cadence, one time for all.</text>
<text class="ann" x="380" y="556">Cleaner, but per-day times impossible.</text>

<text class="ann" x="720" y="540">Pills + per-day time inputs.</text>
<text class="ann" x="720" y="556">Reads at a glance. Shipped.</text>
</svg>