<svg width="760" height="540" xmlns="http://www.w3.org/2000/svg" viewBox="0 0 760 540" style="background:#FBF6E9;width:100%;height:auto;border-radius:10px;">
<defs><filter id="rough" x="0" y="0"><feTurbulence baseFrequency="0.9" numOctaves="2"></feTurbulence><feDisplacementMap in="SourceGraphic" scale="0.6"></feDisplacementMap></filter></defs>
<path d="M0.0 30.0 Q379.5 29.0 760.0 30.0" fill="none" stroke="#4A4A4A" stroke-width="2.5" stroke-linecap="round"></path>
<path d="M15.5 6.7 L33.1 7.6" fill="none" stroke="#4A4A4A" stroke-width="2" stroke-linecap="round"></path><path d="M33.1 7.6 L31.7 22.0" fill="none" stroke="#4A4A4A" stroke-width="2" stroke-linecap="round"></path><path d="M31.7 22.0 L13.6 21.8" fill="none" stroke="#4A4A4A" stroke-width="2" stroke-linecap="round"></path><path d="M13.6 21.8 L15.5 6.7" fill="none" stroke="#4A4A4A" stroke-width="2" stroke-linecap="round"></path>
<path d="M40.0 17.1 L57.5 17.2 L75.0 17.8" fill="none" stroke="#666" stroke-width="1.5" stroke-linecap="round"></path>
<path d="M16.0 58.9 L32.2 60.4" fill="none" stroke="#888" stroke-width="1.5" stroke-linecap="round"></path><path d="M32.2 60.4 L34.3 78.2" fill="none" stroke="#888" stroke-width="1.5" stroke-linecap="round"></path><path d="M34.3 78.2 L14.7 79.4" fill="none" stroke="#888" stroke-width="1.5" stroke-linecap="round"></path><path d="M14.7 79.4 L16.0 58.9" fill="none" stroke="#888" stroke-width="1.5" stroke-linecap="round"></path>
<path d="M13.6 97.1 L32.4 94.9" fill="none" stroke="#888" stroke-width="1.5" stroke-linecap="round"></path><path d="M32.4 94.9 L31.9 113.4" fill="none" stroke="#888" stroke-width="1.5" stroke-linecap="round"></path><path d="M31.9 113.4 L15.9 113.0" fill="none" stroke="#888" stroke-width="1.5" stroke-linecap="round"></path><path d="M15.9 113.0 L13.6 97.1" fill="none" stroke="#888" stroke-width="1.5" stroke-linecap="round"></path>
<path d="M15.2 132.4 L32.6 132.1" fill="none" stroke="#888" stroke-width="1.5" stroke-linecap="round"></path><path d="M32.6 132.1 L31.7 148.7" fill="none" stroke="#888" stroke-width="1.5" stroke-linecap="round"></path><path d="M31.7 148.7 L14.1 150.5" fill="none" stroke="#888" stroke-width="1.5" stroke-linecap="round"></path><path d="M14.1 150.5 L15.2 132.4" fill="none" stroke="#888" stroke-width="1.5" stroke-linecap="round"></path>
<path d="M14.8 167.4 L33.3 167.9" fill="none" stroke="#888" stroke-width="1.5" stroke-linecap="round"></path><path d="M33.3 167.9 L32.4 186.9" fill="none" stroke="#888" stroke-width="1.5" stroke-linecap="round"></path><path d="M32.4 186.9 L15.6 185.2" fill="none" stroke="#888" stroke-width="1.5" stroke-linecap="round"></path><path d="M15.6 185.2 L14.8 167.4" fill="none" stroke="#888" stroke-width="1.5" stroke-linecap="round"></path>
<path d="M15.2 204.1 L34.1 204.7" fill="none" stroke="#888" stroke-width="1.5" stroke-linecap="round"></path><path d="M34.1 204.7 L32.4 223.4" fill="none" stroke="#888" stroke-width="1.5" stroke-linecap="round"></path><path d="M32.4 223.4 L13.9 221.8" fill="none" stroke="#888" stroke-width="1.5" stroke-linecap="round"></path><path d="M13.9 221.8 L15.2 204.1" fill="none" stroke="#888" stroke-width="1.5" stroke-linecap="round"></path>
<path d="M15.8 239.0 L33.0 238.6" fill="none" stroke="#888" stroke-width="1.5" stroke-linecap="round"></path><path d="M33.0 238.6 L33.5 258.8" fill="none" stroke="#888" stroke-width="1.5" stroke-linecap="round"></path><path d="M33.5 258.8 L15.2 259.1" fill="none" stroke="#888" stroke-width="1.5" stroke-linecap="round"></path><path d="M15.2 259.1 L15.8 239.0" fill="none" stroke="#888" stroke-width="1.5" stroke-linecap="round"></path>
<path d="M14.4 276.6 L33.3 276.2" fill="none" stroke="#888" stroke-width="1.5" stroke-linecap="round"></path><path d="M33.3 276.2 L32.9 295.0" fill="none" stroke="#888" stroke-width="1.5" stroke-linecap="round"></path><path d="M32.9 295.0 L16.3 293.9" fill="none" stroke="#888" stroke-width="1.5" stroke-linecap="round"></path><path d="M16.3 293.9 L14.4 276.6" fill="none" stroke="#888" stroke-width="1.5" stroke-linecap="round"></path>
<path d="M280.5 48.7 L340.6 50.4" fill="none" stroke="#4A4A4A" stroke-width="2" stroke-linecap="round"></path><path d="M340.6 50.4 L341.5 75.0" fill="none" stroke="#4A4A4A" stroke-width="2" stroke-linecap="round"></path><path d="M341.5 75.0 L279.4 73.7" fill="none" stroke="#4A4A4A" stroke-width="2" stroke-linecap="round"></path><path d="M279.4 73.7 L280.5 48.7" fill="none" stroke="#4A4A4A" stroke-width="2" stroke-linecap="round"></path>
<path d="M295.0 64.3 L310.0 63.0 L325.0 63.9" fill="none" stroke="#666" stroke-width="1.5" stroke-linecap="round"></path>
<path d="M349.0 48.9 L418.7 50.8" fill="none" stroke="#4A4A4A" stroke-width="2" stroke-linecap="round"></path><path d="M418.7 50.8 L418.9 73.2" fill="none" stroke="#4A4A4A" stroke-width="2" stroke-linecap="round"></path><path d="M418.9 73.2 L349.7 75.1" fill="none" stroke="#4A4A4A" stroke-width="2" stroke-linecap="round"></path><path d="M349.7 75.1 L349.0 48.9" fill="none" stroke="#4A4A4A" stroke-width="2" stroke-linecap="round"></path>
<path d="M365.0 63.2 L385.0 63.9 L405.0 64.1" fill="none" stroke="#666" stroke-width="1.5" stroke-linecap="round"></path>
<rect x="430.0" y="50.0" width="80.0" height="24.0" fill="#3a3a3a" rx="2"></rect><path d="M431.2 51.0 L511.1 49.3" fill="none" stroke="#4A4A4A" stroke-width="2.5" stroke-linecap="round"></path><path d="M511.1 49.3 L509.7 73.6" fill="none" stroke="#4A4A4A" stroke-width="2.5" stroke-linecap="round"></path><path d="M509.7 73.6 L431.2 75.4" fill="none" stroke="#4A4A4A" stroke-width="2.5" stroke-linecap="round"></path><path d="M431.2 75.4 L431.2 51.0" fill="none" stroke="#4A4A4A" stroke-width="2.5" stroke-linecap="round"></path>
<text x="470" y="66" text-anchor="middle" font-family="Caveat, cursive" font-size="13" fill="white">Properties</text>
<text x="60" y="110" font-family="Caveat, cursive" font-size="22" fill="#3A3A3A">Create Recurring Batch Journey</text>
<path d="M49.0 129.0 L77.2 129.2" fill="none" stroke="#555" stroke-width="1.8" stroke-linecap="round"></path><path d="M77.2 129.2 L78.0 158.3" fill="none" stroke="#555" stroke-width="1.8" stroke-linecap="round"></path><path d="M78.0 158.3 L49.3 156.5" fill="none" stroke="#555" stroke-width="1.8" stroke-linecap="round"></path><path d="M49.3 156.5 L49.0 129.0" fill="none" stroke="#555" stroke-width="1.8" stroke-linecap="round"></path>
<text x="92" y="146" font-family="Caveat, cursive" font-size="14" fill="#3A3A3A">AUDIENCE</text>
<path d="M92.0 155.8 L107.4 155.7 L122.9 156.1 L138.3 156.9 L153.8 156.4 L169.2 156.0 L184.6 156.2 L200.1 156.4 L215.5 155.1" fill="none" stroke="#666" stroke-width="1.5" stroke-linecap="round"></path><path d="M92.0 165.6 L107.5 165.7 L123.0 165.6 L138.5 164.8 L154.0 164.8 L169.4 164.2 L184.9 165.3" fill="none" stroke="#666" stroke-width="1.5" stroke-linecap="round"></path>
<path d="M278.7 130.7 L639.1 131.0" fill="none" stroke="#555" stroke-width="1.8" stroke-linecap="round"></path><path d="M639.1 131.0 L639.5 156.7" fill="none" stroke="#555" stroke-width="1.8" stroke-linecap="round"></path><path d="M639.5 156.7 L278.5 157.0" fill="none" stroke="#555" stroke-width="1.8" stroke-linecap="round"></path><path d="M278.5 157.0 L278.7 130.7" fill="none" stroke="#555" stroke-width="1.8" stroke-linecap="round"></path>
<path d="M295.0 147.2 L311.7 147.7 L328.3 147.1 L345.0 148.7 L361.7 148.2 L378.3 147.3 L395.0 147.5" fill="none" stroke="#666" stroke-width="1.5" stroke-linecap="round"></path>
<path d="M279.5 167.6 L638.9 169.0" fill="none" stroke="#555" stroke-width="1.8" stroke-linecap="round"></path><path d="M638.9 169.0 L641.5 193.9" fill="none" stroke="#555" stroke-width="1.8" stroke-linecap="round"></path><path d="M641.5 193.9 L280.0 192.8" fill="none" stroke="#555" stroke-width="1.8" stroke-linecap="round"></path><path d="M280.0 192.8 L279.5 167.6" fill="none" stroke="#555" stroke-width="1.8" stroke-linecap="round"></path>
<path d="M295.0 183.2 L311.0 183.7 L327.0 183.5 L343.0 184.7 L359.0 183.3 L375.0 183.0" fill="none" stroke="#666" stroke-width="1.5" stroke-linecap="round"></path>
<path d="M51.4 220.1 L76.9 220.1" fill="none" stroke="#555" stroke-width="1.8" stroke-linecap="round"></path><path d="M76.9 220.1 L76.6 248.1" fill="none" stroke="#555" stroke-width="1.8" stroke-linecap="round"></path><path d="M76.6 248.1 L51.4 249.1" fill="none" stroke="#555" stroke-width="1.8" stroke-linecap="round"></path><path d="M51.4 249.1 L51.4 220.1" fill="none" stroke="#555" stroke-width="1.8" stroke-linecap="round"></path>
<text x="92" y="236" font-family="Caveat, cursive" font-size="14" fill="#3A3A3A">TIMEZONE</text>
<path d="M280.6 221.3 L639.6 221.0" fill="none" stroke="#555" stroke-width="1.8" stroke-linecap="round"></path><path d="M639.6 221.0 L640.8 248.1" fill="none" stroke="#555" stroke-width="1.8" stroke-linecap="round"></path><path d="M640.8 248.1 L280.8 247.5" fill="none" stroke="#555" stroke-width="1.8" stroke-linecap="round"></path><path d="M280.8 247.5 L280.6 221.3" fill="none" stroke="#555" stroke-width="1.8" stroke-linecap="round"></path>
<path d="M295.0 237.4 L310.0 238.6 L325.0 239.0 L340.0 238.7 L355.0 238.6 L370.0 238.6 L385.0 238.5 L400.0 237.5 L415.0 238.0" fill="none" stroke="#666" stroke-width="1.5" stroke-linecap="round"></path>
<path d="M49.6 268.6 L76.6 269.3" fill="none" stroke="#555" stroke-width="1.8" stroke-linecap="round"></path><path d="M76.6 269.3 L77.3 298.6" fill="none" stroke="#555" stroke-width="1.8" stroke-linecap="round"></path><path d="M77.3 298.6 L51.4 297.8" fill="none" stroke="#555" stroke-width="1.8" stroke-linecap="round"></path><path d="M51.4 297.8 L49.6 268.6" fill="none" stroke="#555" stroke-width="1.8" stroke-linecap="round"></path>
<text x="92" y="286" font-family="Caveat, cursive" font-size="14" fill="#3A3A3A">ACTIVATION</text>
<path d="M281.3 273.5 L451.4 271.6" fill="none" stroke="#555" stroke-width="1.8" stroke-linecap="round"></path><path d="M451.4 271.6 L449.2 297.2" fill="none" stroke="#555" stroke-width="1.8" stroke-linecap="round"></path><path d="M449.2 297.2 L279.1 297.1" fill="none" stroke="#555" stroke-width="1.8" stroke-linecap="round"></path><path d="M279.1 297.1 L281.3 273.5" fill="none" stroke="#555" stroke-width="1.8" stroke-linecap="round"></path>
<path d="M290.0 288.2 L305.0 288.8 L320.0 288.7 L335.0 288.0 L350.0 288.3" fill="none" stroke="#666" stroke-width="1.5" stroke-linecap="round"></path>
<path d="M470.9 270.8 L640.5 273.2" fill="none" stroke="#555" stroke-width="1.8" stroke-linecap="round"></path><path d="M640.5 273.2 L640.8 298.8" fill="none" stroke="#555" stroke-width="1.8" stroke-linecap="round"></path><path d="M640.8 298.8 L469.9 297.0" fill="none" stroke="#555" stroke-width="1.8" stroke-linecap="round"></path><path d="M469.9 297.0 L470.9 270.8" fill="none" stroke="#555" stroke-width="1.8" stroke-linecap="round"></path>
<path d="M480.0 288.6 L495.0 287.7 L510.0 288.6 L525.0 288.9 L540.0 287.8" fill="none" stroke="#666" stroke-width="1.5" stroke-linecap="round"></path>
<path d="M279.7 303.3 L450.7 301.0" fill="none" stroke="#555" stroke-width="1.8" stroke-linecap="round"></path><path d="M450.7 301.0 L448.9 327.0" fill="none" stroke="#555" stroke-width="1.8" stroke-linecap="round"></path><path d="M448.9 327.0 L281.2 328.9" fill="none" stroke="#555" stroke-width="1.8" stroke-linecap="round"></path><path d="M281.2 328.9 L279.7 303.3" fill="none" stroke="#555" stroke-width="1.8" stroke-linecap="round"></path>
<path d="M290.0 317.3 L305.0 318.7 L320.0 319.0 L335.0 318.3 L350.0 317.7" fill="none" stroke="#666" stroke-width="1.5" stroke-linecap="round"></path>
<path d="M470.1 300.9 L638.5 303.4" fill="none" stroke="#555" stroke-width="1.8" stroke-linecap="round"></path><path d="M638.5 303.4 L640.4 328.1" fill="none" stroke="#555" stroke-width="1.8" stroke-linecap="round"></path><path d="M640.4 328.1 L471.3 327.8" fill="none" stroke="#555" stroke-width="1.8" stroke-linecap="round"></path><path d="M471.3 327.8 L470.1 300.9" fill="none" stroke="#555" stroke-width="1.8" stroke-linecap="round"></path>
<path d="M480.0 318.7 L495.0 318.7 L510.0 317.4 L525.0 317.5 L540.0 317.6" fill="none" stroke="#666" stroke-width="1.5" stroke-linecap="round"></path>
<path d="M49.2 350.3 L77.3 349.8" fill="none" stroke="#555" stroke-width="1.8" stroke-linecap="round"></path><path d="M77.3 349.8 L76.9 379.2" fill="none" stroke="#555" stroke-width="1.8" stroke-linecap="round"></path><path d="M76.9 379.2 L49.6 377.9" fill="none" stroke="#555" stroke-width="1.8" stroke-linecap="round"></path><path d="M49.6 377.9 L49.2 350.3" fill="none" stroke="#555" stroke-width="1.8" stroke-linecap="round"></path>
<text x="92" y="366" font-family="Caveat, cursive" font-size="14" fill="#3A3A3A">SCHEDULING</text>
<path d="M280.3 353.2 L334.8 353.3" fill="none" stroke="#555" stroke-width="1.8" stroke-linecap="round"></path><path d="M334.8 353.3 L335.0 374.1" fill="none" stroke="#555" stroke-width="1.8" stroke-linecap="round"></path><path d="M335.0 374.1 L280.1 372.6" fill="none" stroke="#555" stroke-width="1.8" stroke-linecap="round"></path><path d="M280.1 372.6 L280.3 353.2" fill="none" stroke="#555" stroke-width="1.8" stroke-linecap="round"></path>
<text x="307" y="367" text-anchor="middle" font-family="Caveat, cursive" font-size="12" fill="#3A3A3A">Min</text>
<path d="M339.8 351.0 L393.5 352.9" fill="none" stroke="#555" stroke-width="1.8" stroke-linecap="round"></path><path d="M393.5 352.9 L394.0 373.9" fill="none" stroke="#555" stroke-width="1.8" stroke-linecap="round"></path><path d="M394.0 373.9 L340.7 374.2" fill="none" stroke="#555" stroke-width="1.8" stroke-linecap="round"></path><path d="M340.7 374.2 L339.8 351.0" fill="none" stroke="#555" stroke-width="1.8" stroke-linecap="round"></path>
<text x="367" y="367" text-anchor="middle" font-family="Caveat, cursive" font-size="12" fill="#3A3A3A">Hr</text>
<path d="M399.5 352.1 L455.2 352.9" fill="none" stroke="#555" stroke-width="1.8" stroke-linecap="round"></path><path d="M455.2 352.9 L453.8 374.2" fill="none" stroke="#555" stroke-width="1.8" stroke-linecap="round"></path><path d="M453.8 374.2 L399.2 373.3" fill="none" stroke="#555" stroke-width="1.8" stroke-linecap="round"></path><path d="M399.2 373.3 L399.5 352.1" fill="none" stroke="#555" stroke-width="1.8" stroke-linecap="round"></path>
<text x="427" y="367" text-anchor="middle" font-family="Caveat, cursive" font-size="12" fill="#3A3A3A">Day</text>
<rect x="460.0" y="352.0" width="55.0" height="22.0" fill="#3a3a3a" rx="2"></rect><path d="M460.8 352.0 L515.2 352.8" fill="none" stroke="#555" stroke-width="1.8" stroke-linecap="round"></path><path d="M515.2 352.8 L516.2 373.8" fill="none" stroke="#555" stroke-width="1.8" stroke-linecap="round"></path><path d="M516.2 373.8 L460.3 374.0" fill="none" stroke="#555" stroke-width="1.8" stroke-linecap="round"></path><path d="M460.3 374.0 L460.8 352.0" fill="none" stroke="#555" stroke-width="1.8" stroke-linecap="round"></path>
<text x="487" y="367" text-anchor="middle" font-family="Caveat, cursive" font-size="12" fill="white">Wk</text>
<path d="M520.0 352.6 L574.9 352.1" fill="none" stroke="#555" stroke-width="1.8" stroke-linecap="round"></path><path d="M574.9 352.1 L574.9 375.3" fill="none" stroke="#555" stroke-width="1.8" stroke-linecap="round"></path><path d="M574.9 375.3 L520.6 375.1" fill="none" stroke="#555" stroke-width="1.8" stroke-linecap="round"></path><path d="M520.6 375.1 L520.0 352.6" fill="none" stroke="#555" stroke-width="1.8" stroke-linecap="round"></path>
<text x="547" y="367" text-anchor="middle" font-family="Caveat, cursive" font-size="12" fill="#3A3A3A">Mo</text>
<path d="M581.3 351.3 L635.2 353.3" fill="none" stroke="#555" stroke-width="1.8" stroke-linecap="round"></path><path d="M635.2 353.3 L636.0 372.9" fill="none" stroke="#555" stroke-width="1.8" stroke-linecap="round"></path><path d="M636.0 372.9 L578.9 373.8" fill="none" stroke="#555" stroke-width="1.8" stroke-linecap="round"></path><path d="M578.9 373.8 L581.3 351.3" fill="none" stroke="#555" stroke-width="1.8" stroke-linecap="round"></path>
<text x="607" y="367" text-anchor="middle" font-family="Caveat, cursive" font-size="12" fill="#3A3A3A">Cust</text>
<path d="M278.7 389.2 L318.7 390.5" fill="none" stroke="#555" stroke-width="1.8" stroke-linecap="round"></path><path d="M318.7 390.5 L320.9 413.2" fill="none" stroke="#555" stroke-width="1.8" stroke-linecap="round"></path><path d="M320.9 413.2 L279.0 412.6" fill="none" stroke="#555" stroke-width="1.8" stroke-linecap="round"></path><path d="M279.0 412.6 L278.7 389.2" fill="none" stroke="#555" stroke-width="1.8" stroke-linecap="round"></path>
<text x="300" y="406" text-anchor="middle" font-family="Caveat, cursive" font-size="12" fill="#3A3A3A">M</text>
<path d="M325.5 388.9 L366.1 391.4" fill="none" stroke="#555" stroke-width="1.8" stroke-linecap="round"></path><path d="M366.1 391.4 L364.2 413.4" fill="none" stroke="#555" stroke-width="1.8" stroke-linecap="round"></path><path d="M364.2 413.4 L324.7 412.0" fill="none" stroke="#555" stroke-width="1.8" stroke-linecap="round"></path><path d="M324.7 412.0 L325.5 388.9" fill="none" stroke="#555" stroke-width="1.8" stroke-linecap="round"></path>
<text x="345" y="406" text-anchor="middle" font-family="Caveat, cursive" font-size="12" fill="#3A3A3A">T</text>
<path d="M371.5 391.0 L409.0 389.8" fill="none" stroke="#555" stroke-width="1.8" stroke-linecap="round"></path><path d="M409.0 389.8 L410.0 411.5" fill="none" stroke="#555" stroke-width="1.8" stroke-linecap="round"></path><path d="M410.0 411.5 L369.1 411.5" fill="none" stroke="#555" stroke-width="1.8" stroke-linecap="round"></path><path d="M369.1 411.5 L371.5 391.0" fill="none" stroke="#555" stroke-width="1.8" stroke-linecap="round"></path>
<text x="390" y="406" text-anchor="middle" font-family="Caveat, cursive" font-size="12" fill="#3A3A3A">W</text>
<path d="M415.7 388.6 L455.2 389.8" fill="none" stroke="#555" stroke-width="1.8" stroke-linecap="round"></path><path d="M455.2 389.8 L453.6 411.5" fill="none" stroke="#555" stroke-width="1.8" stroke-linecap="round"></path><path d="M453.6 411.5 L415.4 412.0" fill="none" stroke="#555" stroke-width="1.8" stroke-linecap="round"></path><path d="M415.4 412.0 L415.7 388.6" fill="none" stroke="#555" stroke-width="1.8" stroke-linecap="round"></path>
<text x="435" y="406" text-anchor="middle" font-family="Caveat, cursive" font-size="12" fill="#3A3A3A">T</text>
<path d="M458.7 391.5 L500.9 391.4" fill="none" stroke="#555" stroke-width="1.8" stroke-linecap="round"></path><path d="M500.9 391.4 L498.8 411.3" fill="none" stroke="#555" stroke-width="1.8" stroke-linecap="round"></path><path d="M498.8 411.3 L458.6 412.8" fill="none" stroke="#555" stroke-width="1.8" stroke-linecap="round"></path><path d="M458.6 412.8 L458.7 391.5" fill="none" stroke="#555" stroke-width="1.8" stroke-linecap="round"></path>
<text x="480" y="406" text-anchor="middle" font-family="Caveat, cursive" font-size="12" fill="#3A3A3A">F</text>
<path d="M504.3 388.9 L544.8 391.2" fill="none" stroke="#555" stroke-width="1.8" stroke-linecap="round"></path><path d="M544.8 391.2 L546.0 411.3" fill="none" stroke="#555" stroke-width="1.8" stroke-linecap="round"></path><path d="M546.0 411.3 L503.9 413.3" fill="none" stroke="#555" stroke-width="1.8" stroke-linecap="round"></path><path d="M503.9 413.3 L504.3 388.9" fill="none" stroke="#555" stroke-width="1.8" stroke-linecap="round"></path>
<text x="525" y="406" text-anchor="middle" font-family="Caveat, cursive" font-size="12" fill="#3A3A3A">S</text>
<path d="M550.2 390.6 L588.8 388.7" fill="none" stroke="#555" stroke-width="1.8" stroke-linecap="round"></path><path d="M588.8 388.7 L590.6 411.8" fill="none" stroke="#555" stroke-width="1.8" stroke-linecap="round"></path><path d="M590.6 411.8 L548.7 413.3" fill="none" stroke="#555" stroke-width="1.8" stroke-linecap="round"></path><path d="M548.7 413.3 L550.2 390.6" fill="none" stroke="#555" stroke-width="1.8" stroke-linecap="round"></path>
<text x="570" y="406" text-anchor="middle" font-family="Caveat, cursive" font-size="12" fill="#3A3A3A">S</text>
<path d="M280.4 425.9 L348.8 426.1" fill="none" stroke="#555" stroke-width="1.8" stroke-linecap="round"></path><path d="M348.8 426.1 L348.7 448.1" fill="none" stroke="#555" stroke-width="1.8" stroke-linecap="round"></path><path d="M348.7 448.1 L279.9 446.5" fill="none" stroke="#555" stroke-width="1.8" stroke-linecap="round"></path><path d="M279.9 446.5 L280.4 425.9" fill="none" stroke="#555" stroke-width="1.8" stroke-linecap="round"></path>
<path d="M290.0 437.1 L310.0 437.9 L330.0 436.5" fill="none" stroke="#666" stroke-width="1.5" stroke-linecap="round"></path>
<path d="M358.9 425.1 L429.2 423.8" fill="none" stroke="#555" stroke-width="1.8" stroke-linecap="round"></path><path d="M429.2 423.8 L429.0 445.7" fill="none" stroke="#555" stroke-width="1.8" stroke-linecap="round"></path><path d="M429.0 445.7 L359.1 446.4" fill="none" stroke="#555" stroke-width="1.8" stroke-linecap="round"></path><path d="M359.1 446.4 L358.9 425.1" fill="none" stroke="#555" stroke-width="1.8" stroke-linecap="round"></path>
<path d="M370.0 436.6 L390.0 437.5 L410.0 436.6" fill="none" stroke="#666" stroke-width="1.5" stroke-linecap="round"></path>
<path d="M440.0 424.0 L509.5 423.6" fill="none" stroke="#555" stroke-width="1.8" stroke-linecap="round"></path><path d="M509.5 423.6 L509.3 445.5" fill="none" stroke="#555" stroke-width="1.8" stroke-linecap="round"></path><path d="M509.3 445.5 L440.7 447.2" fill="none" stroke="#555" stroke-width="1.8" stroke-linecap="round"></path><path d="M440.7 447.2 L440.0 424.0" fill="none" stroke="#555" stroke-width="1.8" stroke-linecap="round"></path>
<path d="M450.0 436.4 L470.0 436.9 L490.0 437.9" fill="none" stroke="#666" stroke-width="1.5" stroke-linecap="round"></path>
<path d="M518.8 426.0 L589.8 425.0" fill="none" stroke="#555" stroke-width="1.8" stroke-linecap="round"></path><path d="M589.8 425.0 L591.0 446.7" fill="none" stroke="#555" stroke-width="1.8" stroke-linecap="round"></path><path d="M591.0 446.7 L520.0 447.6" fill="none" stroke="#555" stroke-width="1.8" stroke-linecap="round"></path><path d="M520.0 447.6 L518.8 426.0" fill="none" stroke="#555" stroke-width="1.8" stroke-linecap="round"></path>
<path d="M530.0 438.0 L550.0 436.7 L570.0 437.7" fill="none" stroke="#666" stroke-width="1.5" stroke-linecap="round"></path>
<path d="M280.6 490.4 L379.7 489.5" fill="none" stroke="#555" stroke-width="2" stroke-linecap="round"></path><path d="M379.7 489.5 L378.7 520.9" fill="none" stroke="#555" stroke-width="2" stroke-linecap="round"></path><path d="M378.7 520.9 L278.7 522.7" fill="none" stroke="#555" stroke-width="2" stroke-linecap="round"></path><path d="M278.7 522.7 L280.6 490.4" fill="none" stroke="#555" stroke-width="2" stroke-linecap="round"></path>
<text x="330" y="510" text-anchor="middle" font-family="Caveat, cursive" font-size="14" fill="#3A3A3A">Previous</text>
<rect x="400.0" y="490.0" width="140.0" height="32.0" fill="#3a3a3a" rx="2"></rect><path d="M399.3 489.0 L538.8 491.0" fill="none" stroke="#555" stroke-width="2" stroke-linecap="round"></path><path d="M538.8 491.0 L541.1 522.5" fill="none" stroke="#555" stroke-width="2" stroke-linecap="round"></path><path d="M541.1 522.5 L399.3 521.2" fill="none" stroke="#555" stroke-width="2" stroke-linecap="round"></path><path d="M399.3 521.2 L399.3 489.0" fill="none" stroke="#555" stroke-width="2" stroke-linecap="round"></path>
<text x="470" y="510" text-anchor="middle" font-family="Caveat, cursive" font-size="14" fill="white">Create Journey</text>
</svg>