<svg style="width:100%;background:#f1f0ec;border-radius:12px" viewBox="0 0 1080 580" xmlns="http://www.w3.org/2000/svg">
<defs>
 <filter id="sk" x="-3%" y="-3%" width="106%" height="106%">
  <feTurbulence type="fractalNoise" baseFrequency="0.018" numOctaves="2" seed="7" result="n"/>
  <feDisplacementMap in="SourceGraphic" in2="n" scale="3.2" xChannelSelector="R" yChannelSelector="G"/>
 </filter>
</defs>
<style>
 text{font-family:Inter,system-ui,-apple-system,sans-serif}
 .frame{fill:#fcfcfb;stroke:#b1b1a9;stroke-width:2}
 .chrome{fill:#d3d3cd}
 .bar{fill:#e4e4df}
 .bar2{fill:#d5d5cf}
 .fld{fill:#ffffff;stroke:#bdbdb6;stroke-width:1.4;stroke-dasharray:5 3}
 .btn{fill:#b9b9b2}
 .opt{font-size:13px;font-weight:700;fill:#6a6a64}
 .ann{font-size:10.5px;fill:#8f8f88}
 .lbl{font-family:'Roboto Mono',monospace;font-size:11px;letter-spacing:.1em;fill:#9a9a93}
 .chosen{fill:#5c5c56}
 .chev{fill:#a8a8a2}
</style>

<text class="lbl" x="40" y="32">JOURNEY · TYPE TAB · LAYOUT EXPLORATION</text>

<text class="opt" x="40" y="68">Option A</text>
<text class="opt" x="380" y="68">Option B</text>
<text class="opt" x="720" y="68">Option C</text>

<g transform="translate(948,53)"><rect class="chosen" width="92" height="18" rx="9"/><text x="46" y="13" text-anchor="middle" style="font-size:9px;fill:#fff;font-weight:600">&#10003; chosen</text></g>

<g filter="url(#sk)">
 <rect class="frame" x="40" y="80" width="300" height="430" rx="6"/>
 <rect class="chrome" x="40" y="80" width="300" height="26" rx="6"/>
 <rect class="bar2" x="56" y="88" width="70" height="10" rx="3"/>
 <rect class="bar" x="56" y="122" width="46" height="8" rx="3"/>
 <rect class="fld" x="56" y="134" width="268" height="24" rx="4"/>
 <rect class="bar" x="56" y="170" width="62" height="8" rx="3"/>
 <rect class="fld" x="56" y="182" width="268" height="24" rx="4"/>
 <rect class="bar" x="56" y="218" width="78" height="8" rx="3"/>
 <rect class="fld" x="56" y="230" width="268" height="24" rx="4"/>
 <polygon class="chev" points="306,239 318,239 312,247"/>
 <rect class="bar" x="56" y="266" width="50" height="8" rx="3"/>
 <rect class="fld" x="56" y="278" width="268" height="24" rx="4"/>
 <rect class="bar" x="56" y="314" width="72" height="8" rx="3"/>
 <rect class="fld" x="56" y="326" width="268" height="46" rx="4"/>
 <rect class="bar" x="56" y="384" width="58" height="8" rx="3"/>
 <rect class="fld" x="56" y="396" width="268" height="24" rx="4"/>
 <rect class="bar" x="56" y="432" width="66" height="8" rx="3"/>
 <rect class="fld" x="56" y="444" width="268" height="24" rx="4"/>
 <rect class="btn" x="244" y="480" width="80" height="22" rx="11"/>

 <rect class="frame" x="380" y="80" width="300" height="430" rx="6"/>
 <rect class="chrome" x="380" y="80" width="300" height="26" rx="6"/>
 <rect class="bar2" x="396" y="88" width="70" height="10" rx="3"/>
 <rect class="bar" x="396" y="130" width="58" height="8" rx="3"/>
 <rect class="fld" x="486" y="124" width="178" height="22" rx="4"/>
 <rect class="bar" x="396" y="166" width="58" height="8" rx="3"/>
 <rect class="fld" x="486" y="160" width="178" height="22" rx="4"/>
 <rect class="bar" x="396" y="202" width="58" height="8" rx="3"/>
 <rect class="fld" x="486" y="196" width="178" height="22" rx="4"/>
 <polygon class="chev" points="646,205 658,205 652,213"/>
 <rect class="bar" x="396" y="238" width="58" height="8" rx="3"/>
 <rect class="fld" x="486" y="232" width="178" height="22" rx="4"/>
 <rect class="bar" x="396" y="274" width="58" height="8" rx="3"/>
 <rect class="fld" x="486" y="268" width="178" height="44" rx="4"/>
 <rect class="bar" x="396" y="338" width="58" height="8" rx="3"/>
 <rect class="fld" x="486" y="332" width="178" height="22" rx="4"/>
 <rect class="bar" x="396" y="374" width="58" height="8" rx="3"/>
 <rect class="fld" x="486" y="368" width="178" height="22" rx="4"/>
 <line x1="478" y1="118" x2="478" y2="398" stroke="#dad9d3" stroke-width="1"/>
 <rect class="btn" x="584" y="476" width="80" height="22" rx="11"/>

 <rect class="frame" x="720" y="80" width="300" height="430" rx="6"/>
 <rect class="chrome" x="720" y="80" width="300" height="26" rx="6"/>
 <rect class="bar2" x="736" y="88" width="70" height="10" rx="3"/>
 <rect x="736" y="122" width="248" height="28" rx="14" fill="#e4e4df" stroke="#bdbdb6" stroke-width="1.2"/>
 <rect class="chosen" x="740" y="126" width="120" height="20" rx="10"/>
 <rect class="bar" x="772" y="133" width="56" height="6" rx="3" fill="#cfcfc9"/>
 <rect class="bar" x="888" y="133" width="64" height="6" rx="3"/>
 <rect class="bar" x="736" y="170" width="46" height="8" rx="3"/>
 <rect class="fld" x="736" y="182" width="248" height="24" rx="4"/>
 <rect class="bar" x="736" y="218" width="62" height="8" rx="3"/>
 <rect class="fld" x="736" y="230" width="248" height="24" rx="4"/>
 <rect class="bar" x="736" y="266" width="78" height="8" rx="3"/>
 <rect class="fld" x="736" y="278" width="248" height="24" rx="4"/>
 <polygon class="chev" points="966,287 978,287 972,295"/>
 <rect class="bar2" x="736" y="322" width="248" height="30" rx="5"/>
 <rect class="bar" x="752" y="333" width="96" height="8" rx="3"/>
 <polygon class="chev" points="958,333 970,333 964,341"/>
 <rect class="bar2" x="736" y="362" width="248" height="30" rx="5"/>
 <rect class="bar" x="752" y="373" width="80" height="8" rx="3"/>
 <polygon class="chev" points="958,373 970,373 964,381"/>
 <rect class="btn" x="904" y="476" width="80" height="22" rx="11"/>
</g>

<text class="ann" x="40" y="540">Single column, all fields stacked.</text>
<text class="ann" x="40" y="556">Honest, but endless to scroll.</text>
<text class="ann" x="380" y="540">Two-column, labels beside inputs.</text>
<text class="ann" x="380" y="556">Dense; alignment fought the eye.</text>
<text class="ann" x="720" y="540">Basic by default, All-Fields on demand.</text>
<text class="ann" x="720" y="556">Progressive disclosure. Shipped.</text>
</svg>