<svg xmlns="http://www.w3.org/2000/svg" width="900" height="720" viewBox="0 0 900 720" style="background:#FAFBFC;">
<defs>
  <style>
    .lbl{font-family:'Inter','Helvetica',sans-serif;font-size:10px;fill:#6B7280;font-weight:500}
    .lbl-sm{font-family:'Inter','Helvetica',sans-serif;font-size:8.5px;fill:#9CA3AF;font-weight:500;letter-spacing:0.3px}
    .lbl-tab{font-family:'Inter','Helvetica',sans-serif;font-size:10px;fill:#4B5563;font-weight:700;letter-spacing:0.8px}
    .lbl-title{font-family:'Inter','Helvetica',sans-serif;font-size:13px;fill:#374151;font-weight:600}
    .lbl-section{font-family:'Inter','Helvetica',sans-serif;font-size:10px;fill:#6B7280;font-weight:700;letter-spacing:1px}
    .lbl-btn{font-family:'Inter','Helvetica',sans-serif;font-size:10px;fill:#fff;font-weight:600}
    .lbl-btn-dk{font-family:'Inter','Helvetica',sans-serif;font-size:10px;fill:#374151;font-weight:600}
  </style>
</defs>
<rect x="0" y="0" width="900" height="36" fill="#F3F4F6" stroke="#E5E7EB"></rect>
<rect x="14" y="10" width="16" height="16" fill="#D1D5DB" rx="3"></rect>
<text x="38" y="22" class="lbl-sm">AURORA ENGAGE</text>
<rect x="850" y="12" width="12" height="12" fill="#E5E7EB" rx="6"></rect>
<rect x="870" y="12" width="12" height="12" fill="#E5E7EB" rx="3"></rect>
<text x="50" y="60" class="lbl-tab" fill="#6B7280">PROPERTIES</text>
<text x="170" y="60" class="lbl-tab" fill="#374151">EMAIL HEADER</text>
<rect x="168" y="66" width="100" height="2" fill="#374151"></rect>
<text x="295" y="60" class="lbl-tab" fill="#6B7280">DESIGN</text>
<text x="385" y="60" class="lbl-tab" fill="#6B7280">PREVIEW</text>
<text x="470" y="60" class="lbl-tab" fill="#6B7280">ANALYSIS</text>
<line x1="0" y1="76" x2="900" y2="76" stroke="#E5E7EB"></line>
<rect x="65" y="105" width="3" height="14" fill="#9CA3AF" rx="1.5"></rect>
<text x="75" y="116" class="lbl-section">EMAIL HEADER</text>
<text x="65" y="126" class="lbl-sm">From alias</text>
<rect x="65" y="130" width="180" height="28" fill="#fff" stroke="#D1D5DB" rx="3"></rect>
<text x="75" y="147.0" class="lbl">Input Text</text>
<text x="260" y="126" class="lbl-sm">Reply alias</text>
<rect x="260" y="130" width="180" height="28" fill="#fff" stroke="#D1D5DB" rx="3"></rect>
<text x="270" y="147.0" class="lbl">Input Text</text>
<text x="65" y="181" class="lbl-sm">To alias</text>
<rect x="65" y="185" width="180" height="28" fill="#fff" stroke="#D1D5DB" rx="3"></rect>
<text x="75" y="202.0" class="lbl">Input Text</text>
<text x="65" y="246" class="lbl-sm" fill="#374151">Subject</text><circle cx="112" cy="243" r="3" fill="#374151"></circle>
<rect x="65" y="250" width="375" height="30" fill="#F3F4F6" stroke="#374151" stroke-width="1.5" rx="4"></rect>
<text x="80" y="269" class="lbl" fill="#0F172A">This is a dummy subject line for test</text>
<text x="65" y="301" class="lbl-sm">Preheader</text>
<rect x="65" y="305" width="375" height="28" fill="#fff" stroke="#D1D5DB" rx="3"></rect>
<text x="75" y="322.0" class="lbl">Input Text</text>
<text x="65" y="356" class="lbl-sm">From address</text>
<rect x="65" y="360" width="180" height="28" fill="#fff" stroke="#D1D5DB" rx="3"></rect>
<text x="75" y="377.0" class="lbl">Input Text</text>
<text x="260" y="356" class="lbl-sm">Reply address</text>
<rect x="260" y="360" width="180" height="28" fill="#fff" stroke="#D1D5DB" rx="3"></rect>
<text x="270" y="377.0" class="lbl">Input Text</text>
<text x="65" y="411" class="lbl-sm">Delivery group</text>
<rect x="65" y="415" width="375" height="28" fill="#fff" stroke="#D1D5DB" rx="3"></rect>
<text x="75" y="432.0" class="lbl">Input Text</text>
<rect x="490" y="100" width="370" height="570" fill="#fff" stroke="#E5E7EB" rx="6"></rect>
<rect x="490" y="100" width="370" height="40" fill="#F9FAFB" stroke="#E5E7EB" rx="6"></rect>
<rect x="490" y="130" width="370" height="10" fill="#F9FAFB" stroke="#E5E7EB"></rect>
<circle cx="510" cy="120" r="6" fill="#374151"></circle>
<text x="525" y="125" class="lbl-title">Helio AI</text>
<rect x="840" y="115" width="10" height="10" fill="#E5E7EB" rx="2"></rect>
<rect x="555" y="160" width="290" height="36" fill="#F9FAFB" stroke="#E5E7EB" rx="6"></rect>
<text x="700" y="182" text-anchor="middle" class="lbl">Generate 5 variations</text>
<text x="510" y="220" class="lbl-section">5 OPTIONS</text>
<rect x="510" y="235" width="335" height="42" fill="#fff" stroke="#D1D5DB" rx="6"></rect>
<circle cx="525" cy="256" r="6" fill="none" stroke="#9CA3AF"></circle>
<text x="540" y="253" class="lbl-sm">Option 1</text>
<rect x="540" y="259" width="270" height="4" fill="#E5E7EB" rx="1"></rect>
<rect x="540" y="266" width="180" height="4" fill="#E5E7EB" rx="1"></rect>
<rect x="510" y="287" width="335" height="42" fill="#fff" stroke="#D1D5DB" rx="6"></rect>
<circle cx="525" cy="308" r="6" fill="none" stroke="#9CA3AF"></circle>
<text x="540" y="305" class="lbl-sm">Option 2</text>
<rect x="540" y="311" width="270" height="4" fill="#E5E7EB" rx="1"></rect>
<rect x="540" y="318" width="180" height="4" fill="#E5E7EB" rx="1"></rect>
<rect x="510" y="339" width="335" height="42" fill="#fff" stroke="#D1D5DB" rx="6"></rect>
<circle cx="525" cy="360" r="6" fill="none" stroke="#9CA3AF"></circle>
<text x="540" y="357" class="lbl-sm">Option 3</text>
<rect x="540" y="363" width="270" height="4" fill="#E5E7EB" rx="1"></rect>
<rect x="540" y="370" width="180" height="4" fill="#E5E7EB" rx="1"></rect>
<rect x="510" y="391" width="335" height="42" fill="#fff" stroke="#D1D5DB" rx="6"></rect>
<circle cx="525" cy="412" r="6" fill="none" stroke="#9CA3AF"></circle>
<text x="540" y="409" class="lbl-sm">Option 4</text>
<rect x="540" y="415" width="270" height="4" fill="#E5E7EB" rx="1"></rect>
<rect x="540" y="422" width="180" height="4" fill="#E5E7EB" rx="1"></rect>
<rect x="510" y="443" width="335" height="42" fill="#fff" stroke="#D1D5DB" rx="6"></rect>
<circle cx="525" cy="464" r="6" fill="none" stroke="#9CA3AF"></circle>
<text x="540" y="461" class="lbl-sm">Option 5</text>
<rect x="540" y="467" width="270" height="4" fill="#E5E7EB" rx="1"></rect>
<rect x="540" y="474" width="180" height="4" fill="#E5E7EB" rx="1"></rect>
<rect x="510" y="505" width="335" height="36" fill="#fff" stroke="#D1D5DB" rx="6"></rect>
<text x="525" y="528" class="lbl">Ask me anything...</text>
<rect x="510" y="590" width="90" height="32" fill="#fff" stroke="#D1D5DB" rx="4"></rect>
<text x="555.0" y="609.5" text-anchor="middle" class="lbl-btn-dk">Cancel</text>
<rect x="615" y="590" width="230" height="32" fill="#9CA3AF" stroke="#9CA3AF" rx="4"></rect>
<text x="730.0" y="609.5" text-anchor="middle" class="lbl-btn">Insert to text block</text>
</svg>