<svg xmlns="http://www.w3.org/2000/svg" width="900" height="600" viewBox="0 0 900 600" style="background:#FAFBFC;">
<defs>
  <style>
    .lbl{font-family:'Inter','Helvetica',sans-serif;font-size:10px;fill:#6B7280;font-weight:500}
    .lbl-sm{font-family:'Inter','Helvetica',sans-serif;font-size:8.5px;fill:#9CA3AF;font-weight:500;letter-spacing:0.3px}
    .lbl-tab{font-family:'Inter','Helvetica',sans-serif;font-size:10px;fill:#4B5563;font-weight:700;letter-spacing:0.8px}
    .lbl-title{font-family:'Inter','Helvetica',sans-serif;font-size:13px;fill:#374151;font-weight:600}
    .lbl-section{font-family:'Inter','Helvetica',sans-serif;font-size:10px;fill:#6B7280;font-weight:700;letter-spacing:1px}
    .lbl-btn{font-family:'Inter','Helvetica',sans-serif;font-size:10px;fill:#fff;font-weight:600}
    .lbl-btn-dk{font-family:'Inter','Helvetica',sans-serif;font-size:10px;fill:#374151;font-weight:600}
  </style>
</defs>
<rect x="0" y="0" width="900" height="36" fill="#F3F4F6" stroke="#E5E7EB"></rect>
<rect x="14" y="10" width="16" height="16" fill="#D1D5DB" rx="3"></rect>
<text x="38" y="22" class="lbl-sm">AURORA ENGAGE</text>
<rect x="850" y="12" width="12" height="12" fill="#E5E7EB" rx="6"></rect>
<rect x="870" y="12" width="12" height="12" fill="#E5E7EB" rx="3"></rect>
<text x="50" y="60" class="lbl-tab" fill="#6B7280">PROPERTIES</text>
<text x="170" y="60" class="lbl-tab" fill="#6B7280">EMAIL HEADER</text>
<text x="295" y="60" class="lbl-tab" fill="#374151">DESIGN</text>
<rect x="293" y="66" width="50" height="2" fill="#374151"></rect>
<text x="385" y="60" class="lbl-tab" fill="#6B7280">PREVIEW</text>
<text x="470" y="60" class="lbl-tab" fill="#6B7280">ANALYSIS</text>
<line x1="0" y1="76" x2="900" y2="76" stroke="#E5E7EB"></line>
<rect x="40" y="100" width="430" height="450" fill="#fff" stroke="#E5E7EB" rx="6"></rect>
<text x="50" y="120" class="lbl-sm">Preheader text</text>
<rect x="50" y="135" width="60" height="40" fill="#F3F4F6" stroke="#E5E7EB" rx="4"></rect>
<text x="80" y="160" text-anchor="middle" class="lbl-sm">Logo</text>
<rect x="60" y="195" width="390" height="180" fill="#F3F4F6" stroke="#374151" stroke-width="1.5" rx="4"></rect>
<rect x="75" y="215" width="360" height="6" fill="#9CA3AF" rx="2"></rect>
<rect x="75" y="235" width="360" height="6" fill="#9CA3AF" rx="2"></rect>
<rect x="75" y="255" width="360" height="6" fill="#9CA3AF" rx="2"></rect>
<rect x="75" y="275" width="360" height="6" fill="#9CA3AF" rx="2"></rect>
<rect x="75" y="295" width="360" height="6" fill="#9CA3AF" rx="2"></rect>
<rect x="75" y="315" width="360" height="6" fill="#9CA3AF" rx="2"></rect>
<rect x="75" y="335" width="220" height="6" fill="#9CA3AF" rx="2"></rect>
<rect x="60" y="495" width="80" height="6" fill="#E5E7EB" rx="2"></rect>
<rect x="490" y="100" width="370" height="450" fill="#fff" stroke="#E5E7EB" rx="6"></rect>
<rect x="490" y="100" width="370" height="40" fill="#F9FAFB" stroke="#E5E7EB" rx="6"></rect>
<rect x="490" y="130" width="370" height="10" fill="#F9FAFB" stroke="#E5E7EB"></rect>
<circle cx="510" cy="120" r="6" fill="#374151"></circle>
<text x="525" y="125" class="lbl-title">Helio AI</text>
<rect x="840" y="115" width="10" height="10" fill="#E5E7EB" rx="2"></rect>
<rect x="510" y="160" width="330" height="80" fill="#F9FAFB" stroke="#E5E7EB" rx="6"></rect>
<text x="525" y="180" class="lbl-sm">AI</text>
<rect x="525" y="195" width="290" height="5" fill="#E5E7EB" rx="1"></rect>
<rect x="525" y="205" width="290" height="5" fill="#E5E7EB" rx="1"></rect>
<rect x="525" y="215" width="290" height="5" fill="#E5E7EB" rx="1"></rect>
<rect x="525" y="225" width="160" height="5" fill="#E5E7EB" rx="1"></rect>
<rect x="510" y="260" width="160" height="26" fill="#fff" stroke="#D1D5DB" rx="13"></rect>
<text x="590" y="277" text-anchor="middle" class="lbl-sm">Make it shorter</text>
<rect x="685" y="260" width="160" height="26" fill="#fff" stroke="#D1D5DB" rx="13"></rect>
<text x="765" y="277" text-anchor="middle" class="lbl-sm">Change the tone</text>
<rect x="510" y="295" width="160" height="26" fill="#fff" stroke="#D1D5DB" rx="13"></rect>
<text x="590" y="312" text-anchor="middle" class="lbl-sm">Re-write</text>
<rect x="685" y="295" width="160" height="26" fill="#fff" stroke="#D1D5DB" rx="13"></rect>
<text x="765" y="312" text-anchor="middle" class="lbl-sm">Check spelling</text>
<rect x="510" y="345" width="335" height="30" fill="#fff" stroke="#D1D5DB" rx="15"></rect>
<text x="677" y="364" text-anchor="middle" class="lbl">Generate 5 more variations</text>
<rect x="510" y="395" width="335" height="36" fill="#fff" stroke="#D1D5DB" rx="6"></rect>
<text x="525" y="418" class="lbl">Ask me anything...</text>
<rect x="510" y="500" width="90" height="32" fill="#fff" stroke="#D1D5DB" rx="4"></rect>
<text x="555.0" y="519.5" text-anchor="middle" class="lbl-btn-dk">Cancel</text>
<rect x="615" y="500" width="230" height="32" fill="#9CA3AF" stroke="#9CA3AF" rx="4"></rect>
<text x="730.0" y="519.5" text-anchor="middle" class="lbl-btn">Insert to text block</text>
</svg>