<svg xmlns="http://www.w3.org/2000/svg" width="900" height="600" viewBox="0 0 900 600" style="background:#FAFBFC;">
<defs>
  <style>
    .lbl{font-family:'Inter','Helvetica',sans-serif;font-size:10px;fill:#6B7280;font-weight:500}
    .lbl-sm{font-family:'Inter','Helvetica',sans-serif;font-size:8.5px;fill:#9CA3AF;font-weight:500;letter-spacing:0.3px}
    .lbl-tab{font-family:'Inter','Helvetica',sans-serif;font-size:10px;fill:#4B5563;font-weight:700;letter-spacing:0.8px}
    .lbl-title{font-family:'Inter','Helvetica',sans-serif;font-size:13px;fill:#374151;font-weight:600}
    .lbl-section{font-family:'Inter','Helvetica',sans-serif;font-size:10px;fill:#6B7280;font-weight:700;letter-spacing:1px}
    .lbl-btn{font-family:'Inter','Helvetica',sans-serif;font-size:10px;fill:#fff;font-weight:600}
    .lbl-btn-dk{font-family:'Inter','Helvetica',sans-serif;font-size:10px;fill:#374151;font-weight:600}
  </style>
</defs>
<rect x="0" y="0" width="900" height="36" fill="#F3F4F6" stroke="#E5E7EB"></rect>
<rect x="14" y="10" width="16" height="16" fill="#D1D5DB" rx="3"></rect>
<text x="38" y="22" class="lbl-sm">AURORA ENGAGE</text>
<rect x="850" y="12" width="12" height="12" fill="#E5E7EB" rx="6"></rect>
<rect x="870" y="12" width="12" height="12" fill="#E5E7EB" rx="3"></rect>
<rect x="0" y="36" width="48" height="564" fill="#FAFBFC" stroke="#E5E7EB"></rect>
<rect x="14" y="60" width="20" height="20" fill="#E5E7EB" rx="3"></rect>
<rect x="14" y="104" width="20" height="20" fill="#E5E7EB" rx="3"></rect>
<rect x="14" y="148" width="20" height="20" fill="#E5E7EB" rx="3"></rect>
<rect x="14" y="192" width="20" height="20" fill="#E5E7EB" rx="3"></rect>
<rect x="14" y="236" width="20" height="20" fill="#E5E7EB" rx="3"></rect>
<rect x="14" y="280" width="20" height="20" fill="#E5E7EB" rx="3"></rect>
<rect x="14" y="324" width="20" height="20" fill="#E5E7EB" rx="3"></rect>
<rect x="65" y="55" width="10" height="10" fill="#9CA3AF" rx="2"></rect>
<text x="80" y="64" class="lbl">Back</text>
<rect x="280.0" y="50" width="116.0" height="26" fill="#9CA3AF" stroke="#9CA3AF" rx="13"></rect>
<text x="338.0" y="67" class="lbl-tab" text-anchor="middle" fill="#fff">TYPE</text>
<rect x="400.0" y="50" width="116.0" height="26" fill="#fff" stroke="#E5E7EB" rx="13"></rect>
<text x="458.0" y="67" class="lbl-tab" text-anchor="middle" fill="#6B7280">CONTENT</text>
<rect x="520.0" y="50" width="116.0" height="26" fill="#fff" stroke="#E5E7EB" rx="13"></rect>
<text x="578.0" y="67" class="lbl-tab" text-anchor="middle" fill="#6B7280">PROPERTIES</text>
<text x="65" y="105" class="lbl-title">Create New Recurring Batch Journey</text>
<rect x="380" y="125" width="80" height="22" fill="#374151" rx="4"></rect>
<text x="420" y="140" text-anchor="middle" class="lbl-btn">New Asset</text>
<rect x="465" y="125" width="80" height="22" fill="#fff" stroke="#D1D5DB" rx="4"></rect>
<text x="505" y="140" text-anchor="middle" class="lbl-btn-dk">Existing</text>
<rect x="65" y="168" width="3" height="14" fill="#9CA3AF" rx="1.5"></rect>
<text x="75" y="179" class="lbl-section">GENERAL</text>
<text x="280" y="196" class="lbl-sm">Name</text>
<rect x="280" y="200" width="400" height="28" fill="#fff" stroke="#D1D5DB" rx="3"></rect>
<text x="290" y="217.0" class="lbl">Type Name</text>
<text x="280" y="246" class="lbl-sm">Folder Path</text>
<rect x="280" y="250" width="400" height="28" fill="#fff" stroke="#D1D5DB" rx="3"></rect>
<text x="290" y="267.0" class="lbl">Add folder path</text>
<text x="280" y="296" class="lbl-sm">API Name</text>
<rect x="280" y="300" width="400" height="28" fill="#fff" stroke="#D1D5DB" rx="3"></rect>
<text x="290" y="317.0" class="lbl">Newsletter 03 December 2023</text>
<rect x="65" y="350" width="3" height="14" fill="#9CA3AF" rx="1.5"></rect>
<text x="75" y="361" class="lbl-section">ASSET</text>
<text x="65" y="378" class="lbl-sm">Asset description</text>
<text x="65" y="392" class="lbl-sm">helper text</text>
<text x="280" y="356" class="lbl-sm">Asset</text>
<rect x="280" y="360" width="400" height="28" fill="#fff" stroke="#D1D5DB" rx="3"></rect>
<text x="290" y="377.0" class="lbl">Select an asset</text>
<rect x="65" y="430" width="3" height="14" fill="#9CA3AF" rx="1.5"></rect>
<text x="75" y="441" class="lbl-section">ANALYTICS TAG</text>
<text x="280" y="436" class="lbl-sm">Campaign tag</text>
<rect x="280" y="440" width="195" height="28" fill="#fff" stroke="#D1D5DB" rx="3"></rect>
<text x="290" y="457.0" class="lbl">Tag value</text>
<text x="485" y="436" class="lbl-sm">Message tag</text>
<rect x="485" y="440" width="195" height="28" fill="#fff" stroke="#D1D5DB" rx="3"></rect>
<text x="495" y="457.0" class="lbl">Tag value</text>
<rect x="540" y="530" width="70" height="30" fill="#fff" stroke="#D1D5DB" rx="4"></rect>
<text x="575.0" y="548.5" text-anchor="middle" class="lbl-btn-dk">Previous</text>
<rect x="620" y="530" width="70" height="30" fill="#9CA3AF" stroke="#9CA3AF" rx="4"></rect>
<text x="655.0" y="548.5" text-anchor="middle" class="lbl-btn">Next</text>
</svg>