<svg style="width:100%;height:100%" viewbox="0 0 120 120" xmlns="http://www.w3.org/2000/svg">
<defs><lineargradient id="gf" x1="0" x2="0" y1="0" y2="1"><stop offset="0%" stop-color="#8B7DE8"></stop><stop offset="100%" stop-color="#6B5BD2"></stop></lineargradient></defs>
<rect fill="url(#gf)" height="120" rx="12" width="120"></rect>
<circle cx="60" cy="44" fill="rgba(255,255,255,0.9)" r="20"></circle>
<ellipse cx="60" cy="100" fill="rgba(255,255,255,0.9)" rx="32" ry="28"></ellipse>
<circle cx="60" cy="44" fill="#ede8ff" r="18"></circle>
<path d="M38 38c0-14 10-22 22-22s22 8 22 22c0 2-1 4-2 6" fill="#3a2870"></path>
<path d="M38 38c-2 8-2 16 2 22" fill="#3a2870"></path>
<path d="M82 38c2 8 2 16-2 22" fill="#3a2870"></path>
<circle cx="53" cy="44" fill="#3a2870" r="2"></circle><circle cx="67" cy="44" fill="#3a2870" r="2"></circle>
<path d="M55 52q5 3 10 0" fill="none" stroke="#3a2870" stroke-linecap="round" stroke-width="1.5"></path>
<rect fill="rgba(255,255,255,0.85)" height="30" rx="4" width="24" x="48" y="62"></rect>
<path d="M38 92q0-14 22-18q22 4 22 18" fill="rgba(255,255,255,0.85)"></path>
</svg>