<svg style="width:100%;background:#f5f5f3;border-radius:12px;" viewbox="0 0 1080 520" xmlns="http://www.w3.org/2000/svg">
<style>text{font-family:Inter,sans-serif;fill:#666}rect.fr{fill:#fff;stroke:#ccc;stroke-width:1;rx:12}rect.bar{fill:#ddd;rx:4}rect.btn{fill:#999;rx:8}rect.fld{fill:none;stroke:#bbb;stroke-width:1;rx:6}rect.blk{fill:#eee;rx:6}text.tt{font-size:13px;font-weight:700;fill:#444}text.lb{font-size:9px;fill:#999}text.sm{font-size:8px;fill:#aaa}</style>
<g transform="translate(20,20)"><rect class="fr" height="460" width="220"></rect><rect class="bar" height="24" width="200" x="10" y="10"></rect>
<text class="sm" style="fill:#777;font-weight:600" x="15" y="52">Halfway there</text><text class="sm" x="130" y="52">63% Complete</text>
<rect height="14" rx="7" style="fill:#bbb" width="30" x="180" y="44"></rect>
<text style="font-size:6px;fill:#fff" text-anchor="middle" x="195" y="55">Step 7</text>
<rect height="4" rx="2" style="fill:#e5e5e5" width="200" x="10" y="62"></rect>
<rect height="4" rx="2" style="fill:#999" width="126" x="10" y="62"></rect>
<text class="tt" x="15" y="90">Co-applicant</text>
<text class="lb" x="15" y="108">Add a co-applicant to strengthen application</text>
<rect height="70" rx="8" style="fill:none;stroke:#999;stroke-width:1.5" width="195" x="15" y="128"></rect>
<text class="sm" style="font-weight:600;fill:#444" x="25" y="148">Existing customer</text>
<text class="sm" x="25" y="164">Select from existing relations</text>
<text class="sm" style="font-style:italic" x="25" y="180">Spouse, parent or guardian</text>
<rect height="70" rx="8" style="fill:none;stroke:#bbb" width="195" x="15" y="208"></rect>
<text class="sm" style="font-weight:600;fill:#666" x="25" y="228">New co-applicant</text>
<text class="sm" x="25" y="244">Add someone new</text>
<text class="sm" style="font-style:italic" x="25" y="260">Requires KYC verification</text>
<text class="lb" x="15" y="296">Selected: Father — Mohan Kumar</text>
<rect class="fld" height="28" width="195" x="15" y="304"></rect>
<rect class="btn" height="36" rx="18" width="190" x="15" y="410"></rect>
<text style="fill:#fff;font-size:10px;font-weight:600" text-anchor="middle" x="110" y="433">Continue</text></g>
<g transform="translate(270,20)"><rect class="fr" height="460" width="220"></rect><rect class="bar" height="24" width="200" x="10" y="10"></rect>
<text class="sm" style="fill:#777;font-weight:600" x="15" y="52">Halfway there</text><text class="sm" x="130" y="52">48% Complete</text>
<rect height="14" rx="7" style="fill:#bbb" width="30" x="180" y="44"></rect>
<text style="font-size:6px;fill:#fff" text-anchor="middle" x="195" y="55">Step 6</text>
<rect height="4" rx="2" style="fill:#e5e5e5" width="200" x="10" y="62"></rect>
<rect height="4" rx="2" style="fill:#999" width="96" x="10" y="62"></rect>
<text class="tt" x="15" y="90">Loan Summary</text>
<rect height="68" rx="8" style="fill:#eee" width="195" x="15" y="100"></rect>
<text class="sm" x="25" y="118">Total Loan</text><text class="sm" style="font-weight:600;fill:#444" text-anchor="end" x="180" y="118">₹65,000</text>
<text class="sm" x="25" y="138">Total EMI</text><text class="sm" style="font-weight:600;fill:#444" text-anchor="end" x="180" y="138">₹11,000</text>
<text class="sm" x="25" y="158">FEMI Date</text><text class="sm" style="font-weight:600;fill:#444" text-anchor="end" x="180" y="158">11/07/2024</text>
<text class="lb" x="15" y="190">Loan breakdown</text>
<line style="stroke:#ddd" x1="15" x2="205" y1="196" y2="196"></line>
<text class="sm" x="15" y="214">Loan Amount</text><text class="sm" style="font-weight:600" text-anchor="end" x="200" y="214">₹60,000</text>
<text class="sm" x="15" y="234">Tenure</text><text class="sm" style="font-weight:600" text-anchor="end" x="200" y="234">6 mo</text>
<text class="sm" x="15" y="254">Down Payment</text><text class="sm" style="font-weight:600" text-anchor="end" x="200" y="254">₹20,000</text>
<text class="sm" x="15" y="274">EMI</text><text class="sm" style="font-weight:600" text-anchor="end" x="200" y="274">₹9,999</text>
<text class="sm" x="15" y="294">Cust IRR</text><text class="sm" style="font-weight:600" text-anchor="end" x="200" y="294">26.97%</text>
<line style="stroke:#ddd" x1="15" x2="205" y1="312" y2="312"></line>
<text class="sm" style="font-weight:600;fill:#444" x="15" y="332">Net Disbursement</text>
<text class="sm" style="font-weight:600;fill:#444" text-anchor="end" x="200" y="332">₹60,500</text>
<rect class="btn" height="36" rx="18" width="190" x="15" y="410"></rect>
<text style="fill:#fff;font-size:10px;font-weight:600" text-anchor="middle" x="110" y="433">Proceed to Validation</text></g>
<g transform="translate(520,20)"><rect class="fr" height="460" width="220"></rect><rect class="bar" height="24" width="200" x="10" y="10"></rect>
<text class="sm" style="fill:#777;font-weight:600" x="15" y="52">Nearly finished</text><text class="sm" x="130" y="52">90% Complete</text>
<rect height="14" rx="7" style="fill:#bbb" width="40" x="170" y="44"></rect>
<text style="font-size:6px;fill:#fff" text-anchor="middle" x="190" y="55">Step 10</text>
<rect height="4" rx="2" style="fill:#e5e5e5" width="200" x="10" y="62"></rect>
<rect height="4" rx="2" style="fill:#999" width="180" x="10" y="62"></rect>
<text class="tt" x="15" y="90">Upload Documents</text>
<rect height="48" rx="8" style="fill:#eee" width="195" x="15" y="108"></rect>
<rect class="blk" height="24" rx="3" width="24" x="25" y="120"></rect>
<text class="sm" style="font-weight:600" x="58" y="130">Down Payment Receipt</text>
<text class="sm" x="58" y="144">Required</text>
<rect height="20" rx="10" style="fill:none;stroke:#888" width="50" x="155" y="125"></rect>
<text class="sm" text-anchor="middle" x="180" y="138">Re-Upload</text>
<rect height="48" rx="8" style="fill:#eee" width="195" x="15" y="166"></rect>
<rect class="blk" height="24" rx="3" width="24" x="25" y="178"></rect>
<text class="sm" style="font-weight:600" x="58" y="188">Insurance</text>
<rect height="20" rx="10" style="fill:none;stroke:#888" width="50" x="155" y="183"></rect>
<text class="sm" text-anchor="middle" x="180" y="196">Re-Upload</text>
<rect height="48" rx="8" style="fill:none;stroke:#bbb" width="195" x="15" y="224"></rect>
<rect class="blk" height="24" rx="3" width="24" x="25" y="236"></rect>
<text class="sm" style="font-weight:600" x="58" y="246">Bank Passbook</text>
<rect height="20" rx="10" style="fill:none;stroke:#888" width="50" x="155" y="241"></rect>
<text class="sm" text-anchor="middle" x="180" y="254">Upload</text>
<rect height="38" rx="8" style="fill:#f0f0f0" width="195" x="15" y="290"></rect>
<text class="sm" x="25" y="306">Supported: JPG, PNG, PDF</text>
<text class="sm" x="25" y="320">Max size: 4 MB</text>
<rect class="btn" height="36" rx="18" width="190" x="15" y="410"></rect>
<text style="fill:#fff;font-size:10px;font-weight:600" text-anchor="middle" x="110" y="433">Select Delivery Address</text></g>
<g transform="translate(770,20)"><rect class="fr" height="460" width="220"></rect><rect class="bar" height="24" width="200" x="10" y="10"></rect>
<rect class="blk" height="120" rx="60" width="140" x="40" y="80"></rect>
<text class="sm" text-anchor="middle" x="110" y="148">Success icon</text>
<text class="tt" style="font-size:18px;fill:#2D8B55" text-anchor="middle" x="110" y="230">Loan Disbursed!</text>
<text class="lb" text-anchor="middle" x="110" y="252">Your loan has been approved</text>
<text class="lb" text-anchor="middle" x="110" y="266">and disbursed successfully</text>
<rect height="80" rx="8" style="fill:#eee" width="195" x="15" y="290"></rect>
<text class="sm" x="25" y="310">Application ID</text>
<text class="sm" style="font-weight:600;fill:#444" text-anchor="end" x="200" y="310">3000TW000001</text>
<text class="sm" x="25" y="330">Amount Disbursed</text>
<text class="sm" style="font-weight:600;fill:#444" text-anchor="end" x="200" y="330">₹60,500</text>
<text class="sm" x="25" y="350">Date</text>
<text class="sm" style="font-weight:600;fill:#444" text-anchor="end" x="200" y="350">15/06/2024</text>
<rect height="28" rx="14" style="fill:none;stroke:#888" width="195" x="15" y="390"></rect>
<text class="sm" style="font-weight:600" text-anchor="middle" x="110" y="408">Download Receipt</text>
<rect class="btn" height="36" rx="18" width="190" x="15" y="424"></rect>
<text style="fill:#fff;font-size:10px;font-weight:600" text-anchor="middle" x="110" y="447">Done</text></g>
<text style="font-size:11px;font-weight:600;fill:#444" text-anchor="middle" x="130" y="505">Co-Applicant</text>
<text style="font-size:11px;font-weight:600;fill:#444" text-anchor="middle" x="380" y="505">Loan Summary</text>
<text style="font-size:11px;font-weight:600;fill:#444" text-anchor="middle" x="630" y="505">Upload Documents</text>
<text style="font-size:11px;font-weight:600;fill:#444" text-anchor="middle" x="880" y="505">Disbursement</text>
</svg>